<svg width="14" height="14" viewBox="0 0 14 14" fill="none" xmlns="http://www.w3.org/2000/svg">
<g clip-path="url(#clip0_3_3057)">
<path opacity="0.3" d="M12.7876 11.0862L7.62141 13.1438C7.20805 13.3132 6.7448 13.3132 6.33143 13.1438L1.20283 11.0862C1.06306 11.0305 0.943201 10.9341 0.858754 10.8094C0.774308 10.6847 0.729164 10.5375 0.729164 10.3868C0.729164 10.2361 0.774308 10.0889 0.858754 9.9642C0.943201 9.8395 1.06306 9.74306 1.20283 9.68736L1.98558 9.36744L5.86178 10.9231C6.57777 11.2075 7.37508 11.2075 8.09106 10.9231L12.0048 9.36744L12.8064 9.68736C12.9454 9.74492 13.064 9.84297 13.1468 9.96881C13.2296 10.0946 13.2728 10.2425 13.2708 10.3932C13.2687 10.5439 13.2216 10.6905 13.1355 10.8141C13.0493 10.9376 12.9281 11.0325 12.7876 11.0862ZM7.62141 9.75636L12.7688 7.69254C12.9066 7.63583 13.0245 7.53935 13.1075 7.41537C13.1904 7.29139 13.2347 7.1455 13.2347 6.99624C13.2347 6.84698 13.1904 6.70109 13.1075 6.57711C13.0245 6.45313 12.9066 6.35665 12.7688 6.29993L7.62141 4.23611C7.21796 4.08284 6.77245 4.08284 6.36901 4.23611L1.20283 6.29993C1.06501 6.35665 0.947124 6.45313 0.864164 6.57711C0.781203 6.70109 0.736908 6.84698 0.736908 6.99624C0.736908 7.1455 0.781203 7.29139 0.864164 7.41537C0.947124 7.53935 1.06501 7.63583 1.20283 7.69254L6.36901 9.75636C6.77245 9.90964 7.21796 9.90964 7.62141 9.75636Z" fill="#676A72"/>
<path d="M6.36901 6.36893L1.20283 4.30511C1.06306 4.24941 0.943201 4.15297 0.858754 4.02827C0.774308 3.90357 0.729164 3.75636 0.729164 3.60567C0.729164 3.45499 0.774308 3.30777 0.858754 3.18307C0.943201 3.05837 1.06306 2.96193 1.20283 2.90623L6.36901 0.848684C6.77133 0.689355 7.21909 0.689355 7.62141 0.848684L12.7688 2.90623C12.9086 2.96193 13.0284 3.05837 13.1129 3.18307C13.1973 3.30777 13.2425 3.45499 13.2425 3.60567C13.2425 3.75636 13.1973 3.90357 13.1129 4.02827C13.0284 4.15297 12.9086 4.24941 12.7688 4.30511L7.62141 6.36893C7.21796 6.52221 6.77245 6.52221 6.36901 6.36893Z" fill="#676A72"/>
</g>
<defs>
<clipPath id="clip0_3_3057">
<rect width="14" height="14" fill="white"/>
</clipPath>
</defs>
</svg>
