<svg width="22" height="22" viewBox="0 0 22 22" fill="none" xmlns="http://www.w3.org/2000/svg">
<path fill-rule="evenodd" clip-rule="evenodd" d="M19.3694 10.0141C19.6306 10.0141 19.8809 10.1184 20.0657 10.3031C20.2504 10.4879 20.3546 10.7382 20.3547 10.9994V12.9701C20.3547 13.2315 20.2505 13.4826 20.0657 13.6674C19.8809 13.852 19.6306 13.9564 19.3694 13.9565H17.3987V10.0141H19.3694ZM19.3694 4.10196C19.6306 4.10208 19.881 4.20633 20.0657 4.39102C20.2503 4.57576 20.3547 4.82609 20.3547 5.08731V7.05801C20.3547 7.31936 20.2505 7.57048 20.0657 7.75528C19.881 7.93991 19.6305 8.04324 19.3694 8.04337H17.3977V4.10196H19.3694Z" fill="#8E9198"/>
<path opacity="0.3" d="M14.5603 20.8542H4.46967C3.71698 20.8542 2.99513 20.5552 2.4629 20.0229C1.93067 19.4907 1.63167 18.7689 1.63167 18.0162V3.98384C1.63167 3.23116 1.93067 2.5093 2.4629 1.97707C2.99513 1.44485 3.71698 1.14584 4.46967 1.14584H14.5603C15.313 1.14584 16.0349 1.44485 16.5671 1.97707C17.0993 2.5093 17.3983 3.23116 17.3983 3.98384V18.0162C17.3983 18.7689 17.0993 19.4907 16.5671 20.0229C16.0349 20.5552 15.313 20.8542 14.5603 20.8542ZM9.515 6.07293C9.12521 6.07293 8.74417 6.18851 8.42006 6.40507C8.09596 6.62163 7.84336 6.92943 7.69419 7.28956C7.54502 7.64968 7.50599 8.04595 7.58204 8.42825C7.65808 8.81055 7.84579 9.16172 8.12141 9.43735C8.39704 9.71298 8.74821 9.90068 9.13051 9.97672C9.51281 10.0528 9.90908 10.0137 10.2692 9.86457C10.6293 9.71541 10.9371 9.4628 11.1537 9.1387C11.3702 8.81459 11.4858 8.43355 11.4858 8.04376C11.4858 7.52106 11.2782 7.01977 10.9086 6.65017C10.539 6.28057 10.0377 6.07293 9.515 6.07293ZM12.7373 14.9417C12.9004 14.9515 13.0635 14.9206 13.2117 14.8518C13.3599 14.783 13.4887 14.6784 13.5864 14.5474C13.6842 14.4164 13.7478 14.2632 13.7716 14.1015C13.7954 13.9399 13.7786 13.7748 13.7227 13.6212C13.3611 12.8158 12.7677 12.1363 12.0183 11.6694C11.2689 11.2026 10.3974 10.9695 9.515 11C8.6389 10.9759 7.77517 11.2109 7.03196 11.6754C6.28875 12.1399 5.6991 12.8133 5.33683 13.6114C5.08063 14.2519 5.6029 14.9417 6.84452 14.9417H12.7373Z" fill="#8E9198"/>
</svg>
