<svg width="14" height="14" viewBox="0 0 14 14" fill="none" xmlns="http://www.w3.org/2000/svg">
<g clip-path="url(#clip0_6_1011)">
<path d="M9.53969 0.729187H4.49166C3.49379 0.729187 2.53678 1.12559 1.83117 1.8312C1.12557 2.5368 0.729164 3.49381 0.729164 4.49169V9.57106C0.745616 10.558 1.14927 11.499 1.8531 12.1911C2.55693 12.8832 3.50456 13.271 4.49166 13.2709H9.57104C10.5526 13.2545 11.4889 12.8552 12.1801 12.1581C12.8714 11.461 13.2628 10.5214 13.2708 9.53971V4.49169C13.2709 3.49922 12.8788 2.54693 12.1799 1.84222C11.4811 1.13751 10.5321 0.737458 9.53969 0.729187ZM9.77798 10.2734H6.18479C6.06005 10.2734 5.94043 10.2238 5.85223 10.1356C5.76403 10.0474 5.71448 9.92782 5.71448 9.80308C5.71448 9.67835 5.76403 9.55872 5.85223 9.47052C5.94043 9.38232 6.06005 9.33277 6.18479 9.33277H9.77798C9.90271 9.33277 10.0223 9.38232 10.1105 9.47052C10.1987 9.55872 10.2483 9.67835 10.2483 9.80308C10.2483 9.92782 10.1987 10.0474 10.1105 10.1356C10.0223 10.2238 9.90271 10.2734 9.77798 10.2734ZM9.95356 7.47033H4.64844C4.5237 7.47033 4.40407 7.42078 4.31587 7.33258C4.22767 7.24438 4.17812 7.12476 4.17812 7.00002C4.17812 6.87529 4.22767 6.75566 4.31587 6.66746C4.40407 6.57926 4.5237 6.52971 4.64844 6.52971H9.95356C10.0783 6.52971 10.1979 6.57926 10.2861 6.66746C10.3743 6.75566 10.4239 6.87529 10.4239 7.00002C10.4239 7.12476 10.3743 7.24438 10.2861 7.33258C10.1979 7.42078 10.0783 7.47033 9.95356 7.47033ZM9.95356 4.66727H7.84029C7.71555 4.66727 7.59593 4.61772 7.50773 4.52952C7.41953 4.44132 7.36998 4.32169 7.36998 4.19696C7.36998 4.07222 7.41953 3.9526 7.50773 3.8644C7.59593 3.7762 7.71555 3.72665 7.84029 3.72665H9.95356C10.0783 3.72665 10.1979 3.7762 10.2861 3.8644C10.3743 3.9526 10.4239 4.07222 10.4239 4.19696C10.4239 4.32169 10.3743 4.44132 10.2861 4.52952C10.1979 4.61772 10.0783 4.66727 9.95356 4.66727Z" fill="#676A72"/>
</g>
<defs>
<clipPath id="clip0_6_1011">
<rect width="14" height="14" fill="white"/>
</clipPath>
</defs>
</svg>
