<svg width="22" height="22" viewBox="0 0 22 22" fill="none" xmlns="http://www.w3.org/2000/svg">
<path opacity="0.3" d="M11.441 17.4135C11.4364 16.494 11.6689 15.5888 12.1159 14.7853C12.5629 13.9818 13.2094 13.307 13.993 12.826C14.7767 12.3451 15.6711 12.0741 16.5899 12.0394C17.5087 12.0046 18.421 12.2072 19.2388 12.6276V9.35256C19.2388 9.14058 19.1546 8.93728 19.0047 8.78739C18.8548 8.6375 18.6515 8.55329 18.4395 8.55329H2.06427C1.85229 8.55329 1.64899 8.6375 1.4991 8.78739C1.34921 8.93728 1.265 9.14058 1.265 9.35256V14.8987C1.26758 16.3007 1.82634 17.6444 2.81864 18.6349C3.81094 19.6254 5.15568 20.1817 6.55771 20.1817H12.2208C11.709 19.3492 11.4389 18.3907 11.441 17.4135Z" fill="#8E9198"/>
<path fill-rule="evenodd" clip-rule="evenodd" d="M16.832 13.5146C17.8659 13.5148 18.8578 13.9262 19.5889 14.6572C20.3198 15.3884 20.7305 16.3802 20.7305 17.4141C20.7304 18.1851 20.5016 18.939 20.0732 19.5801C19.6448 20.2212 19.0356 20.7205 18.3232 21.0156C17.611 21.3106 16.8274 21.3886 16.0713 21.2383C15.315 21.0878 14.6195 20.7162 14.0742 20.1709C13.5291 19.6257 13.1583 18.9309 13.0078 18.1748C12.8574 17.4185 12.9344 16.6343 13.2295 15.9219C13.5246 15.2095 14.024 14.6003 14.665 14.1719C15.3062 13.7435 16.0609 13.5146 16.832 13.5146ZM16.832 15.1914C16.6373 15.1965 16.4514 15.2785 16.3164 15.4189C16.1816 15.5594 16.1077 15.7477 16.1103 15.9424V16.6729H15.3887C15.1963 16.6825 15.0142 16.7643 14.8789 16.9014C14.7437 17.0385 14.6653 17.2216 14.6582 17.4141C14.6569 17.51 14.6744 17.6052 14.71 17.6943C14.7455 17.7835 14.7983 17.8648 14.8652 17.9336C14.9322 18.0024 15.0124 18.0578 15.1006 18.0957C15.1886 18.1334 15.2832 18.153 15.3789 18.1543H16.1103V18.9053C16.1091 19.0012 16.1266 19.0964 16.1621 19.1855C16.1976 19.2747 16.2505 19.356 16.3174 19.4248C16.3844 19.4936 16.4645 19.549 16.5527 19.5869C16.6409 19.6248 16.7361 19.6442 16.832 19.6455C16.9278 19.6442 17.0224 19.6247 17.1103 19.5869C17.1986 19.549 17.2787 19.4936 17.3457 19.4248C17.4126 19.356 17.4654 19.2747 17.501 19.1855C17.5365 19.0964 17.554 19.0012 17.5527 18.9053V18.1738H18.2549C18.3535 18.1751 18.4515 18.1572 18.543 18.1201C18.6346 18.0829 18.7181 18.027 18.7881 17.957C18.858 17.8871 18.9139 17.8036 18.9512 17.7119C18.9882 17.6205 19.0062 17.5225 19.0049 17.4238C19.0075 17.3275 18.9911 17.2314 18.9561 17.1416C18.921 17.0519 18.868 16.9704 18.8008 16.9014C18.7335 16.8323 18.6533 16.7767 18.5645 16.7393C18.4758 16.7019 18.3804 16.6826 18.2842 16.6826H17.5527V15.9326C17.554 15.8366 17.5365 15.7406 17.501 15.6514C17.4654 15.5623 17.4126 15.4808 17.3457 15.4121C17.2788 15.3434 17.1985 15.2889 17.1103 15.251C17.0223 15.2132 16.9278 15.1927 16.832 15.1914ZM7.03515 14.5293C7.49811 14.5293 7.87305 14.8998 7.87305 15.3574C7.87299 15.8149 7.49808 16.1855 7.03515 16.1855C6.57223 16.1855 6.19732 15.8149 6.19726 15.3574C6.19726 14.8998 6.5722 14.5293 7.03515 14.5293ZM7.04492 11.4092C7.50788 11.4092 7.88281 11.7807 7.88281 12.2383C7.88269 12.6958 7.5078 13.0664 7.04492 13.0664C6.58208 13.0664 6.20715 12.6957 6.20703 12.2383C6.20703 11.7807 6.582 11.4092 7.04492 11.4092ZM10.1738 11.4092C10.6367 11.4093 11.0117 11.7808 11.0117 12.2383C11.0116 12.6957 10.6366 13.0663 10.1738 13.0664C9.71095 13.0664 9.33508 12.6958 9.33496 12.2383C9.33496 11.7807 9.71087 11.4092 10.1738 11.4092ZM14.8818 0.6875C15.0602 0.687536 15.2313 0.758669 15.3574 0.884766C15.4834 1.01087 15.5547 1.18208 15.5547 1.36035V2.88086C16.3156 3.13538 17.0086 3.55979 17.5811 4.12207C18.1535 4.68437 18.5903 5.36968 18.8584 6.12598C18.9036 6.24699 18.9197 6.37762 18.9043 6.50586C18.8889 6.63391 18.8429 6.75652 18.7705 6.86328C18.698 6.97008 18.6007 7.05844 18.4873 7.12012C18.3739 7.18174 18.2472 7.21497 18.1182 7.21777H2.52246C2.36446 7.21731 2.20897 7.17841 2.06933 7.10449C1.92978 7.03059 1.80989 6.92426 1.7207 6.79395C1.63158 6.66361 1.57494 6.51327 1.55664 6.35645C1.53839 6.19947 1.55932 6.04002 1.61621 5.89258C1.90869 5.18496 2.35104 4.54927 2.91308 4.0293C3.47506 3.50938 4.143 3.11753 4.87109 2.88086V1.36035C4.87109 1.18204 4.94231 1.01088 5.06836 0.884766C5.19449 0.758637 5.36557 0.6875 5.54394 0.6875C5.72231 0.687507 5.89341 0.758644 6.01953 0.884766C6.14556 1.01088 6.2168 1.18206 6.2168 1.36035V2.62695H9.71582V1.36035C9.71582 1.18198 9.78696 1.01089 9.91308 0.884766C10.0392 0.758674 10.2103 0.6875 10.3887 0.6875C10.4764 0.687545 10.5636 0.705394 10.6445 0.739258C10.7253 0.773137 10.7988 0.822382 10.8603 0.884766C10.922 0.947349 10.9712 1.02197 11.0039 1.10352C11.0366 1.18499 11.0521 1.27258 11.0508 1.36035V2.59766H14.209V1.36035C14.209 1.18202 14.2802 1.01089 14.4062 0.884766C14.5324 0.758637 14.7035 0.6875 14.8818 0.6875Z" fill="#8E9198"/>
</svg>
