<svg width="14" height="14" viewBox="0 0 14 14" fill="none" xmlns="http://www.w3.org/2000/svg">
<g clip-path="url(#clip0_3_3045)">
<path opacity="0.1" fill-rule="evenodd" clip-rule="evenodd" d="M9.35645 0.402832C10.342 0.404348 11.2878 0.795441 11.9863 1.49072C12.6846 2.18597 13.0798 3.12936 13.0859 4.11475V9.64209C13.1704 9.76146 13.2374 9.89325 13.2803 10.0347C13.3639 10.2919 13.3724 10.5675 13.3057 10.8296C13.2388 11.0918 13.099 11.3302 12.9023 11.5161L12.748 11.6587V11.8472C12.7876 12.046 12.7846 12.2514 12.7383 12.4487C12.6919 12.6458 12.6033 12.8305 12.4795 12.9907C12.3618 13.1596 12.2068 13.2997 12.0264 13.3989C11.8458 13.4981 11.6443 13.5542 11.4385 13.563C11.1968 13.564 10.9591 13.499 10.752 13.3745L10.5693 13.2661L10.3867 13.3745C10.1796 13.512 9.93701 13.5869 9.68848 13.5913C9.47323 13.59 9.26122 13.5374 9.07031 13.438C8.8796 13.3386 8.71518 13.1955 8.59082 13.02C8.5663 12.9887 8.54418 12.9555 8.52246 12.9224H4.29492C3.30919 12.9177 2.36543 12.5232 1.66992 11.8247C0.974417 11.1259 0.583116 10.1797 0.583008 9.19385V4.11475C0.587598 3.13172 0.980666 2.18974 1.67578 1.49463C2.37082 0.799666 3.31206 0.407492 4.29492 0.402832H9.35645Z" fill="#676A72"/>
<path fill-rule="evenodd" clip-rule="evenodd" d="M10.5557 7.98291C10.8441 7.99398 11.1235 8.08683 11.3613 8.25049C11.5992 8.41423 11.7861 8.64211 11.8994 8.90771L11.9512 9.02393H12.167C12.4348 9.05638 12.687 9.16685 12.8936 9.34033C13.1001 9.5138 13.2518 9.74337 13.3301 10.0015C13.4152 10.2632 13.4244 10.5443 13.3564 10.811C13.2885 11.0776 13.1462 11.3193 12.9463 11.5083L12.7891 11.6538V11.8462C12.8293 12.0484 12.8264 12.2569 12.7793 12.4575C12.7321 12.6582 12.6417 12.8461 12.5156 13.0093C12.3958 13.1812 12.2383 13.3234 12.0547 13.4243C11.871 13.5252 11.6664 13.5824 11.457 13.5913C11.2112 13.5924 10.9695 13.5265 10.7588 13.3999L10.5723 13.2886L10.3867 13.3999C10.1761 13.5397 9.92955 13.6161 9.67676 13.6206C9.45775 13.6193 9.2421 13.5655 9.04785 13.4644C8.85368 13.3632 8.68613 13.2172 8.55957 13.0386C8.4323 12.8762 8.34116 12.6884 8.29297 12.4878C8.24481 12.2871 8.24056 12.078 8.28027 11.8755L8.34473 11.6245L8.18164 11.48C7.97876 11.2916 7.8328 11.0493 7.76172 10.7817C7.6907 10.5141 7.69757 10.2315 7.78027 9.96729C7.85883 9.70868 8.01036 9.47766 8.2168 9.30322C8.42311 9.12894 8.67548 9.01825 8.94336 8.98389H9.15332L9.20508 8.86768C9.31405 8.60806 9.49683 8.38516 9.73047 8.22803C9.9641 8.07091 10.239 7.98594 10.5205 7.98291H10.5557ZM9.35645 0.379395C10.342 0.380911 11.2878 0.772003 11.9863 1.46729C12.6847 2.16253 13.0798 3.1059 13.0859 4.09131V5.9585C13.0859 6.07422 13.0398 6.18526 12.958 6.26709C12.8762 6.34882 12.7651 6.39502 12.6494 6.39502C12.5338 6.39492 12.4226 6.34884 12.3408 6.26709C12.2591 6.18528 12.2139 6.07413 12.2139 5.9585V4.09131C12.2139 3.33369 11.9127 2.60652 11.377 2.0708C10.8412 1.53509 10.1141 1.23389 9.35645 1.23389H4.29492C3.53748 1.23396 2.81103 1.53526 2.27539 2.0708C1.73967 2.60652 1.43848 3.33369 1.43848 4.09131V9.15283C1.43851 9.52786 1.51274 9.89912 1.65625 10.2456C1.79981 10.5922 2.01013 10.9071 2.27539 11.1724C2.81105 11.708 3.5374 12.0092 4.29492 12.0093H5.20312C5.31873 12.0094 5.42997 12.0555 5.51172 12.1372C5.59337 12.219 5.63867 12.3302 5.63867 12.4458C5.63861 12.5614 5.59346 12.6726 5.51172 12.7544C5.42997 12.8361 5.31873 12.8822 5.20312 12.8823V12.8989H4.29492C3.30917 12.8942 2.36543 12.4998 1.66992 11.8013C0.974398 11.1025 0.583094 10.1563 0.583008 9.17041V4.09131C0.587598 3.10828 0.980666 2.16631 1.67578 1.47119C2.37082 0.776253 3.31207 0.384055 4.29492 0.379395H9.35645ZM10.4912 8.89014C10.3807 8.8931 10.2733 8.92795 10.1816 8.98975C10.0899 9.05157 10.0178 9.13836 9.97363 9.23975L9.8457 9.54248C9.81056 9.63028 9.75167 9.70675 9.67578 9.76318C9.5998 9.81966 9.50934 9.8535 9.41504 9.86182L9.00195 9.90869C8.87863 9.92513 8.76487 9.98517 8.68164 10.0776C8.59311 10.1897 8.54905 10.3305 8.55762 10.4731C8.5662 10.6159 8.62705 10.7504 8.72852 10.8511L9.04883 11.1362C9.11812 11.2 9.16969 11.2809 9.19824 11.3706C9.22677 11.4603 9.23066 11.5559 9.21094 11.6479L9.12402 12.0669V12.1665C9.12254 12.2374 9.13541 12.3084 9.16113 12.3745C9.18691 12.4405 9.22538 12.5011 9.27441 12.5522C9.32355 12.6035 9.38226 12.6448 9.44727 12.6733C9.51227 12.7019 9.58233 12.7177 9.65332 12.7192C9.74792 12.7205 9.84093 12.6936 9.9209 12.6431L10.2764 12.4282C10.3581 12.3824 10.4503 12.3579 10.5439 12.3579C10.6376 12.358 10.7299 12.3824 10.8115 12.4282L11.166 12.6372C11.2472 12.685 11.3394 12.7116 11.4336 12.7134H11.5498C11.6882 12.6802 11.8086 12.593 11.8838 12.4722C11.9588 12.3514 11.9826 12.2056 11.9512 12.0669L11.8643 11.6538C11.8474 11.561 11.8536 11.4655 11.8818 11.3755C11.9102 11.2853 11.9601 11.2028 12.0273 11.1362L12.3359 10.8511C12.4046 10.7601 12.445 10.6504 12.4521 10.5366C12.4702 10.3934 12.4309 10.2486 12.3428 10.1343C12.2545 10.0198 12.1238 9.94512 11.9805 9.92627L11.5674 9.88525C11.4706 9.87414 11.379 9.83572 11.3037 9.77393C11.2284 9.71203 11.1722 9.62948 11.1426 9.53662L11.0146 9.23975C10.97 9.13749 10.8975 9.04968 10.8047 8.98779C10.7118 8.9259 10.6028 8.89199 10.4912 8.89014ZM9.38281 4.89404C9.43559 4.89364 9.48808 4.90279 9.53711 4.92236C9.58704 4.94233 9.63249 4.97261 9.6709 5.01025C9.75195 5.09475 9.79688 5.20762 9.79688 5.32471C9.79676 5.44161 9.75183 5.5538 9.6709 5.63818L8.14648 7.32568C7.98844 7.4919 7.77454 7.59357 7.5459 7.61182C7.31722 7.63004 7.08964 7.56343 6.90723 7.42432L6.00586 6.6626H5.92383L4.53418 8.12256C4.50197 8.17293 4.45839 8.21565 4.40723 8.24658C4.35599 8.27752 4.29792 8.29621 4.23828 8.30127C4.17886 8.3063 4.11902 8.29758 4.06348 8.27588C4.0078 8.25404 3.95726 8.21951 3.91699 8.17529C3.87531 8.13369 3.8419 8.08419 3.81934 8.02979C3.79677 7.97538 3.78516 7.91681 3.78516 7.85791C3.78516 7.79903 3.79678 7.74043 3.81934 7.68604C3.8419 7.63167 3.87533 7.58211 3.91699 7.54053L5.3252 6.05713C5.48395 5.88667 5.70212 5.7832 5.93457 5.76807C6.167 5.75301 6.39671 5.8276 6.57617 5.97607L7.47754 6.71436H7.56445L9.06641 5.03369C9.10746 4.98994 9.15692 4.95417 9.21191 4.93018C9.26585 4.90671 9.32402 4.89479 9.38281 4.89404Z" fill="#676A72"/>
</g>
<defs>
<clipPath id="clip0_3_3045">
<rect width="14" height="14" fill="white"/>
</clipPath>
</defs>
</svg>
