<svg width="14" height="14" viewBox="0 0 14 14" fill="none" xmlns="http://www.w3.org/2000/svg">
<path d="M12.4634 13.9999H11.6439C11.2273 13.9999 10.8278 13.8344 10.5332 13.5399C10.2387 13.2453 10.0732 12.8458 10.0732 12.4292V6.99997C10.0732 6.58276 10.2384 6.18253 10.5328 5.88688C10.8272 5.59122 11.2267 5.42422 11.6439 5.42241H12.4634C12.8747 5.4331 13.2655 5.60401 13.5525 5.89871C13.8396 6.19341 14.0001 6.58858 14 6.99997V12.4634C13.9913 12.8682 13.8266 13.2539 13.5403 13.5402C13.254 13.8265 12.8682 13.9912 12.4634 13.9999ZM11.6439 6.48778C11.5047 6.4875 11.3707 6.54035 11.2692 6.63554C11.1676 6.73072 11.1063 6.86107 11.0976 6.99997V12.4634C11.0976 12.6083 11.1551 12.7472 11.2576 12.8497C11.36 12.9521 11.499 13.0097 11.6439 13.0097H12.4634C12.6083 13.0097 12.7473 12.9521 12.8497 12.8497C12.9522 12.7472 13.0098 12.6083 13.0098 12.4634V6.99997C13.0107 6.92765 12.9972 6.85587 12.9701 6.7888C12.9431 6.72172 12.903 6.66068 12.8522 6.60923C12.8013 6.55777 12.7408 6.51691 12.6741 6.48903C12.6073 6.46115 12.5357 6.44679 12.4634 6.4468L11.6439 6.48778ZM7.49854 13.9999H6.67902C6.27012 13.9982 5.87816 13.8364 5.58712 13.5492C5.29607 13.262 5.12909 12.8722 5.12195 12.4634V6.99997C5.12195 6.58638 5.28578 6.18963 5.57759 5.89653C5.8694 5.60344 6.26544 5.43788 6.67902 5.43607H7.46439C7.67123 5.43427 7.8764 5.47335 8.0681 5.55105C8.2598 5.62875 8.43427 5.74355 8.58149 5.88886C8.7287 6.03418 8.84577 6.20713 8.92596 6.39781C9.00615 6.58848 9.04789 6.79312 9.04878 6.99997V12.4634C9.03982 12.8764 8.86851 13.2692 8.57195 13.5568C8.2754 13.8444 7.87748 14.0036 7.46439 13.9999H7.49854ZM6.71317 6.48778C6.57127 6.48957 6.43579 6.5472 6.33608 6.64819C6.23638 6.74917 6.18048 6.88537 6.18049 7.02729V12.4634C6.17958 12.5339 6.19269 12.6039 6.21906 12.6693C6.24542 12.7347 6.28452 12.7943 6.33407 12.8444C6.38363 12.8946 6.44265 12.9345 6.50773 12.9617C6.57281 12.9889 6.64264 13.0029 6.71317 13.0029H7.49854C7.64162 13.0029 7.77885 12.946 7.88003 12.8448C7.98121 12.7437 8.03805 12.6064 8.03805 12.4634V6.99997C8.03805 6.85688 7.98121 6.71966 7.88003 6.61848C7.77885 6.5173 7.64162 6.46046 7.49854 6.46046L6.71317 6.48778ZM2.51317 13.9999H1.59122C1.16976 13.9981 0.766066 13.8299 0.468043 13.5319C0.17002 13.2339 0.00179731 12.8302 0 12.4087V7.04094C0.00179731 6.61948 0.17002 6.21579 0.468043 5.91777C0.766066 5.61975 1.16976 5.45153 1.59122 5.44973H2.47902C2.90049 5.45153 3.30418 5.61975 3.6022 5.91777C3.90022 6.21579 4.06845 6.61948 4.07024 7.04094V12.4087C4.06845 12.8302 3.90022 13.2339 3.6022 13.5319C3.30418 13.8299 2.90049 13.9981 2.47902 13.9999H2.51317ZM1.62537 6.48778C1.47503 6.48778 1.33086 6.54749 1.22456 6.6538C1.11826 6.7601 1.05854 6.90427 1.05854 7.0546V12.4224C1.05854 12.5727 1.11826 12.7169 1.22456 12.8232C1.33086 12.9295 1.47503 12.9892 1.62537 12.9892H2.51317C2.6635 12.9892 2.80768 12.9295 2.91398 12.8232C3.02028 12.7169 3.08 12.5727 3.08 12.4224V7.04094C3.08 6.89061 3.02028 6.74644 2.91398 6.64014C2.80768 6.53384 2.6635 6.47412 2.51317 6.47412L1.62537 6.48778ZM12.3268 4.439H1.70732C1.25451 4.439 0.820246 4.25913 0.500062 3.93895C0.179877 3.61876 0 3.1845 0 2.73169V1.70731C0 1.2545 0.179877 0.820242 0.500062 0.500059C0.820246 0.179877 1.25451 0 1.70732 0H12.2927C12.7455 0 13.1798 0.179877 13.4999 0.500059C13.8201 0.820242 14 1.2545 14 1.70731V2.73169C14 3.1845 13.8201 3.61876 13.4999 3.93895C13.1798 4.25913 12.7455 4.439 12.2927 4.439H12.3268ZM1.74146 1.02439C1.56034 1.02439 1.38663 1.09634 1.25856 1.22441C1.13049 1.35248 1.05854 1.52619 1.05854 1.70731V2.73169C1.05854 2.91282 1.13049 3.08652 1.25856 3.21459C1.38663 3.34267 1.56034 3.41462 1.74146 3.41462H12.3268C12.508 3.41462 12.6817 3.34267 12.8097 3.21459C12.9378 3.08652 13.0098 2.91282 13.0098 2.73169V1.70731C13.0098 1.52619 12.9378 1.35248 12.8097 1.22441C12.6817 1.09634 12.508 1.02439 12.3268 1.02439H1.74146Z" fill="#DCDDDE"/>
</svg>
