<svg width="22" height="22" viewBox="0 0 22 22" fill="none" xmlns="http://www.w3.org/2000/svg">
<path fill-rule="evenodd" clip-rule="evenodd" d="M19.4634 16.8297C20.1555 16.8298 20.7163 17.3914 20.7163 18.0836V19.4635C20.7162 20.1555 20.1554 20.7163 19.4634 20.7164H16.1401C15.448 20.7164 14.8864 20.1556 14.8862 19.4635V18.0836C14.8862 17.3913 15.4479 16.8297 16.1401 16.8297H19.4634ZM19.4634 9.54257C20.1554 9.54271 20.7161 10.1035 20.7163 10.7955V12.1754C20.7163 12.8676 20.1555 13.4292 19.4634 13.4293H16.1401C15.4479 13.4293 14.8862 12.8676 14.8862 12.1754V10.7955C14.8865 10.1034 15.448 9.54257 16.1401 9.54257H19.4634ZM6.06396 1.28378C7.18008 1.28385 8.08442 2.18817 8.08447 3.30429V5.09238C8.08441 6.20849 7.18008 7.11282 6.06396 7.11288H3.3042C2.18808 7.11282 1.28375 6.20849 1.28369 5.09238V3.30429C1.28375 2.18817 2.18808 1.28384 3.3042 1.28378H6.06396ZM19.4634 2.25546C20.1555 2.2556 20.7163 2.81624 20.7163 3.50839V4.88828C20.7163 5.58042 20.1555 6.14107 19.4634 6.1412H16.1401C15.4479 6.1412 14.8863 5.58051 14.8862 4.88828V3.50839C14.8863 2.81615 15.4479 2.25546 16.1401 2.25546H19.4634Z" fill="#8E9198"/>
<path opacity="0.3" d="M14.8866 12.2146C15.0799 12.2146 15.2652 12.1378 15.4019 12.0011C15.5385 11.8645 15.6153 11.6791 15.6153 11.4858C15.6153 11.2925 15.5385 11.1072 15.4019 10.9705C15.2652 10.8339 15.0799 10.7571 14.8866 10.7571H12.2145V4.92707H14.8866C15.0799 4.92707 15.2652 4.8503 15.4019 4.71363C15.5385 4.57696 15.6153 4.3916 15.6153 4.19832C15.6153 4.00505 15.5385 3.81969 15.4019 3.68302C15.2652 3.54635 15.0799 3.46957 14.8866 3.46957H8.08491C7.89163 3.46957 7.70627 3.54635 7.56961 3.68302C7.43294 3.81969 7.35616 4.00505 7.35616 4.19832C7.35616 4.3916 7.43294 4.57696 7.56961 4.71363C7.70627 4.8503 7.89163 4.92707 8.08491 4.92707H10.757V16.6551C10.757 17.4102 11.0569 18.1343 11.5909 18.6682C12.1248 19.2021 12.8489 19.5021 13.604 19.5021H14.8866C15.0799 19.5021 15.2652 19.4253 15.4019 19.2886C15.5385 19.152 15.6153 18.9666 15.6153 18.7733C15.6153 18.58 15.5385 18.3947 15.4019 18.258C15.2652 18.1214 15.0799 18.0446 14.8866 18.0446H13.604C13.2355 18.0446 12.882 17.8982 12.6215 17.6376C12.3609 17.377 12.2145 17.0236 12.2145 16.6551V12.2146H14.8866Z" fill="#8E9198"/>
</svg>
