<svg width="22" height="22" viewBox="0 0 22 22" fill="none" xmlns="http://www.w3.org/2000/svg">
<path opacity="0.3" fill-rule="evenodd" clip-rule="evenodd" d="M10.1362 15.0382C10.768 15.049 11.37 15.3038 11.81 15.7472C12.25 16.1909 12.4923 16.7875 12.4838 17.4054C12.4836 17.8765 12.3401 18.337 12.0707 18.7277C11.8012 19.1184 11.4179 19.4219 10.9711 19.5988C10.5246 19.7754 10.0342 19.818 9.56291 19.7208C9.09127 19.6235 8.6592 19.3902 8.32366 19.0519C7.98828 18.7136 7.76407 18.2851 7.67912 17.8214C7.59418 17.3576 7.6525 16.8794 7.84709 16.4484C8.04173 16.0173 8.36409 15.6527 8.7719 15.4015C9.17959 15.1504 9.65451 15.0239 10.1362 15.0382ZM10.3735 16.6212C10.2115 16.5601 10.0347 16.5483 9.86565 16.587C9.69649 16.6259 9.54249 16.7137 9.42522 16.839C9.30812 16.9643 9.23194 17.1212 9.20744 17.2892C9.18293 17.4574 9.21172 17.629 9.2885 17.7814C9.36529 17.9337 9.48685 18.0602 9.63811 18.1437C9.78938 18.2271 9.96308 18.2636 10.1362 18.2492V18.2081C10.3476 18.1977 10.5471 18.1083 10.6938 17.9591C10.8403 17.81 10.9237 17.6122 10.9262 17.4054C10.9256 17.2356 10.8723 17.0697 10.7739 16.9298C10.6753 16.7899 10.5356 16.6824 10.3735 16.6212ZM16.4526 5.96204C17.0677 5.79086 17.7081 6.13996 17.8832 6.74134L19.1694 11.1564C19.3442 11.7576 18.9875 12.3836 18.3725 12.5548L13.643 13.8712C13.0279 14.0421 12.3874 13.6932 12.2123 13.0919L10.9272 8.67689C10.7521 8.07567 11.1082 7.44986 11.7231 7.27845L16.4526 5.96204ZM13.8295 0.739387C14.3384 0.597761 14.8682 0.886407 15.0131 1.38392L16.0883 5.0763C16.233 5.57372 15.9379 6.09193 15.4291 6.23353L11.5414 7.31556C11.0325 7.45718 10.5018 7.16848 10.3569 6.67103L9.28166 2.97865C9.13681 2.48123 9.43208 1.96316 9.94084 1.82142L13.8295 0.739387Z" fill="#8E9198"/>
<path fill-rule="evenodd" clip-rule="evenodd" d="M19.2232 19.7629C19.4306 19.7657 19.6282 19.8491 19.7739 19.9934C19.9198 20.1379 20.0015 20.3324 20.0015 20.5354C20.0015 20.7372 19.9198 20.9307 19.7739 21.0735C19.6279 21.2162 19.4297 21.297 19.2232 21.2971H6.25148C6.04484 21.2971 5.84681 21.2163 5.70069 21.0735C5.55467 20.9307 5.4722 20.7373 5.47218 20.5354C5.47216 20.3326 5.55405 20.1379 5.69972 19.9934C5.84554 19.8489 6.04388 19.7656 6.25148 19.7629H19.2232ZM20.854 13.5657C20.9558 13.5777 21.0547 13.6093 21.1441 13.6585C21.2334 13.7077 21.3122 13.7739 21.3755 13.8528C21.4387 13.9316 21.4856 14.0219 21.5132 14.1184C21.5408 14.2151 21.5489 14.3166 21.5366 14.4163C21.5243 14.5157 21.4912 14.6121 21.4409 14.6995C21.3906 14.7867 21.3233 14.8632 21.2427 14.9251C21.1621 14.9869 21.0699 15.0328 20.9712 15.0598L14.4429 16.8303L14.2319 16.8616C14.0601 16.8608 13.893 16.8053 13.7564 16.7034C13.6195 16.6012 13.5201 16.4574 13.4741 16.2952C13.4471 16.1986 13.4398 16.0976 13.4526 15.9983C13.4655 15.8989 13.4985 15.803 13.5493 15.7161C13.6002 15.6291 13.6684 15.5528 13.7495 15.4915C13.8306 15.4302 13.9231 15.3848 14.022 15.3586L20.5493 13.5881C20.6482 13.5611 20.7521 13.5537 20.854 13.5657ZM5.9253 1.01099C6.12615 0.957316 6.34068 0.983161 6.52198 1.08325C6.70342 1.18351 6.83753 1.35004 6.89405 1.54615L10.1362 13.0022C10.1913 13.1958 10.1664 13.403 10.0659 13.5784C9.96533 13.7538 9.79702 13.8836 9.59913 13.9387L9.35694 13.969C9.18496 13.9683 9.01807 13.9128 8.88136 13.8108C8.74458 13.7087 8.64509 13.5657 8.59913 13.4036L5.55616 2.68872L4.91359 2.8606C4.79295 3.07592 4.58634 3.2447 4.32374 3.30982L1.68995 3.96118C1.18827 4.08537 0.678319 3.78853 0.55128 3.2981L0.486827 3.04908C0.359788 2.55865 0.663852 2.05998 1.16554 1.93579L3.79835 1.28443C4.05083 1.22193 4.30548 1.26614 4.51222 1.38794L5.9253 1.01099ZM15.8784 7.99048C15.9326 8.1768 15.9084 8.37691 15.812 8.54615C15.7155 8.71522 15.5543 8.83981 15.3638 8.89283L14.23 9.20825C14.0394 9.26129 13.8348 9.23894 13.6616 9.14478C13.4885 9.05055 13.3605 8.89257 13.3062 8.7063L12.8013 6.97388L15.3735 6.25806L15.8784 7.99048ZM13.3726 2.45923C13.4177 2.61413 13.398 2.78043 13.3179 2.92115C13.2378 3.0616 13.104 3.16509 12.9458 3.20923L12.0239 3.46607C11.8655 3.51016 11.6952 3.49071 11.5513 3.41236C11.4075 3.33399 11.3014 3.20289 11.2564 3.0481L10.8296 1.58325L12.9458 0.994388L13.3726 2.45923Z" fill="#8E9198"/>
</svg>
