<svg width="14" height="14" viewBox="0 0 14 14" fill="none" xmlns="http://www.w3.org/2000/svg">
<g clip-path="url(#clip0_3_3041)">
<path opacity="0.3" d="M13.271 7.00001H10.3049C9.89556 6.98958 9.49245 6.89763 9.11911 6.72952C8.74577 6.56142 8.40971 6.32054 8.1306 6.02099C7.85148 5.72144 7.63491 5.36922 7.49356 4.98495C7.35222 4.60069 7.28893 4.19209 7.30741 3.78307V0.729172H4.22843C3.29037 0.742394 2.39569 1.12647 1.74 1.79745C1.0843 2.46842 0.720925 3.3717 0.729306 4.30982V9.69019C0.720925 10.6283 1.0843 11.5316 1.74 12.2026C2.39569 12.8735 3.29037 13.2576 4.22843 13.2708H9.75931C10.699 13.2593 11.596 12.8761 12.254 12.2051C12.912 11.5342 13.2777 10.63 13.271 9.69019V7.00001Z" fill="#676A72"/>
<path d="M9.50838 10.1668C9.51885 10.284 9.48252 10.4005 9.40732 10.491C9.33212 10.5815 9.22417 10.6385 9.10705 10.6496H4.41019C4.29372 10.6369 4.18674 10.5795 4.11186 10.4894C4.03697 10.3993 4.00003 10.2836 4.00886 10.1668C4.00012 10.0506 4.03725 9.93568 4.11227 9.84659C4.1873 9.75749 4.29425 9.70135 4.41019 9.69019H9.08823C9.14759 9.69252 9.20585 9.70686 9.2595 9.73236C9.31315 9.75786 9.36106 9.79398 9.40034 9.83853C9.43962 9.88309 9.46945 9.93515 9.48802 9.99158C9.50659 10.048 9.51352 10.1076 9.50838 10.1668ZM8.25421 0.729172V3.73917C8.23467 4.0242 8.27294 4.31024 8.36675 4.58009C8.46055 4.84995 8.60794 5.09806 8.80006 5.30951C8.99218 5.52096 9.22507 5.69139 9.48473 5.81056C9.74439 5.92972 10.0255 5.99516 10.311 6.00294H13.2709L8.25421 0.729172ZM4.54188 8.07232H6.52346C6.64986 8.07232 6.77108 8.02211 6.86046 7.93273C6.94984 7.84335 7.00005 7.72213 7.00005 7.59573C7.00005 7.46934 6.94984 7.34812 6.86046 7.25874C6.77108 7.16936 6.64986 7.11915 6.52346 7.11915H4.54188C4.41548 7.11915 4.29426 7.16936 4.20488 7.25874C4.11551 7.34812 4.0653 7.46934 4.0653 7.59573C4.0653 7.72213 4.11551 7.84335 4.20488 7.93273C4.29426 8.02211 4.41548 8.07232 4.54188 8.07232Z" fill="#676A72"/>
</g>
<defs>
<clipPath id="clip0_3_3041">
<rect width="14" height="14" fill="white"/>
</clipPath>
</defs>
</svg>
