<svg width="14" height="14" viewBox="0 0 14 14" fill="none" xmlns="http://www.w3.org/2000/svg">
<g clip-path="url(#clip0_3_3060)">
<path opacity="0.3" fill-rule="evenodd" clip-rule="evenodd" d="M4.94336 7.94434C5.55627 7.94444 6.05272 8.44145 6.05273 9.05469V12.1602C6.05273 12.7734 5.55627 13.2704 4.94336 13.2705H1.83887C1.22597 13.2704 0.729492 12.7734 0.729492 12.1602V9.05469C0.729503 8.44147 1.22598 7.94446 1.83887 7.94434H4.94336ZM12.1543 0.729492C12.7673 0.729492 13.2646 1.22654 13.2646 1.83984V4.94531C13.2646 5.5586 12.7673 6.05566 12.1543 6.05566H9.05078C8.43779 6.05566 7.94045 5.5586 7.94043 4.94531V1.83984C7.94043 1.22654 8.43778 0.729492 9.05078 0.729492H12.1543Z" fill="#676A72"/>
<path fill-rule="evenodd" clip-rule="evenodd" d="M12.8008 11.3447C12.9253 11.3448 13.0447 11.3944 13.1328 11.4824C13.221 11.5707 13.2705 11.6906 13.2705 11.8154C13.2705 11.9402 13.221 12.0602 13.1328 12.1484C13.0447 12.2364 12.9253 12.286 12.8008 12.2861H8.41113C8.28645 12.2861 8.16632 12.2366 8.07812 12.1484C7.98994 12.0602 7.94045 11.9402 7.94043 11.8154C7.94043 11.6906 7.98992 11.5707 8.07812 11.4824C8.16632 11.3942 8.28641 11.3447 8.41113 11.3447H12.8008ZM12.8008 8.93555C12.9253 8.93565 13.0447 8.98522 13.1328 9.07324C13.221 9.16149 13.2705 9.28146 13.2705 9.40625C13.2705 9.53105 13.221 9.65101 13.1328 9.73926C13.0447 9.82728 12.9253 9.87685 12.8008 9.87695H8.41113C8.28643 9.87695 8.16632 9.82746 8.07812 9.73926C7.98992 9.65101 7.94043 9.53105 7.94043 9.40625C7.94043 9.28146 7.98993 9.16149 8.07812 9.07324C8.16632 8.98504 8.28643 8.93555 8.41113 8.93555H12.8008ZM4.94336 0.729492C5.55627 0.729596 6.05273 1.2266 6.05273 1.83984V4.94531C6.05271 5.55854 5.55626 6.05556 4.94336 6.05566H1.83887C1.22599 6.05554 0.729513 5.55852 0.729492 4.94531V1.83984C0.729492 1.22661 1.22597 0.72962 1.83887 0.729492H4.94336Z" fill="#676A72"/>
</g>
<defs>
<clipPath id="clip0_3_3060">
<rect width="14" height="14" fill="white"/>
</clipPath>
</defs>
</svg>
