<svg width="14" height="14" viewBox="0 0 14 14" fill="none" xmlns="http://www.w3.org/2000/svg">
<path opacity="0.3" fill-rule="evenodd" clip-rule="evenodd" d="M11.8955 8.88086C12.5015 8.88086 12.9931 9.37253 12.9932 9.97852V12.1738C12.993 12.7797 12.5015 13.2705 11.8955 13.2705H8.75977C8.154 13.2703 7.66327 12.7796 7.66309 12.1738V9.97852C7.66319 9.37267 8.15395 8.88109 8.75977 8.88086H11.8955ZM11.8955 0.729492C12.5014 0.729562 12.993 1.22032 12.9932 1.82617V6.5293C12.9932 7.13533 12.5015 7.62688 11.8955 7.62695H8.69141C8.08533 7.62695 7.59375 7.13537 7.59375 6.5293V1.82617C7.59396 1.22028 8.08546 0.729492 8.69141 0.729492H11.8955Z" fill="#676A72"/>
<path d="M5.23615 0.729187H2.10073C1.49465 0.729187 1.00333 1.22051 1.00333 1.82658V12.1735C1.00333 12.7795 1.49465 13.2709 2.10073 13.2709H5.23615C5.84222 13.2709 6.33354 12.7795 6.33354 12.1735V1.82658C6.33354 1.22051 5.84222 0.729187 5.23615 0.729187Z" fill="#676A72"/>
</svg>
