<svg width="14" height="14" viewBox="0 0 14 14" fill="none" xmlns="http://www.w3.org/2000/svg">
<path opacity="0.1" d="M11.585 4.47998H2.415C2.04525 4.47998 1.69063 4.33309 1.42918 4.07164C1.16772 3.81018 1.02084 3.45557 1.02084 3.08581V2.41498C1.02084 2.04522 1.16772 1.69061 1.42918 1.42915C1.69063 1.1677 2.04525 1.02081 2.415 1.02081H11.585C11.9548 1.02081 12.3094 1.1677 12.5708 1.42915C12.8323 1.69061 12.9792 2.04522 12.9792 2.41498V3.08581C12.9792 3.45557 12.8323 3.81018 12.5708 4.07164C12.3094 4.33309 11.9548 4.47998 11.585 4.47998ZM3.69834 12.9791H2.415C2.04525 12.9791 1.69063 12.8323 1.42918 12.5708C1.16772 12.3093 1.02084 11.9547 1.02084 11.585V6.76665C1.02084 6.39689 1.16772 6.04228 1.42918 5.78082C1.69063 5.51936 2.04525 5.37248 2.415 5.37248H3.69834C4.06708 5.37402 4.4202 5.52159 4.68039 5.78288C4.94059 6.04417 5.08667 6.3979 5.08667 6.76665V11.585C5.08667 11.9537 4.94059 12.3075 4.68039 12.5687C4.4202 12.83 4.06708 12.9776 3.69834 12.9791ZM11.5675 12.9791H7.385C7.01108 12.9776 6.65291 12.8284 6.3885 12.564C6.12409 12.2996 5.97487 11.9414 5.97334 11.5675V6.78998C5.97333 6.41504 6.12188 6.05538 6.38645 5.78971C6.65102 5.52405 7.01007 5.37402 7.385 5.37248H11.5675C11.9424 5.37402 12.3015 5.52405 12.5661 5.78971C12.8306 6.05538 12.9792 6.41504 12.9792 6.78998V11.5675C12.9776 11.9414 12.8284 12.2996 12.564 12.564C12.2996 12.8284 11.9414 12.9776 11.5675 12.9791Z" fill="#676A72"/>
<path d="M11.585 4.47998H2.415C2.04525 4.47998 1.69063 4.33309 1.42918 4.07164C1.16772 3.81018 1.02084 3.45557 1.02084 3.08581V2.41498C1.02084 2.04522 1.16772 1.69061 1.42918 1.42915C1.69063 1.1677 2.04525 1.02081 2.415 1.02081H11.585C11.9548 1.02081 12.3094 1.1677 12.5708 1.42915C12.8323 1.69061 12.9792 2.04522 12.9792 2.41498V3.08581C12.9792 3.45557 12.8323 3.81018 12.5708 4.07164C12.3094 4.33309 11.9548 4.47998 11.585 4.47998ZM2.415 1.89581C2.27731 1.89581 2.14526 1.95051 2.0479 2.04787C1.95053 2.14524 1.89584 2.27729 1.89584 2.41498V3.08581C1.89584 3.2235 1.95053 3.35556 2.0479 3.45292C2.14526 3.55028 2.27731 3.60498 2.415 3.60498H11.585C11.6532 3.60498 11.7207 3.59155 11.7837 3.56546C11.8467 3.53937 11.9039 3.50113 11.9521 3.45292C12.0003 3.40471 12.0386 3.34748 12.0646 3.28449C12.0907 3.2215 12.1042 3.15399 12.1042 3.08581V2.41498C12.1042 2.3468 12.0907 2.27929 12.0646 2.2163C12.0386 2.15331 12.0003 2.09608 11.9521 2.04787C11.9039 1.99966 11.8467 1.96142 11.7837 1.93533C11.7207 1.90924 11.6532 1.89581 11.585 1.89581H2.415ZM3.69834 12.9791H2.415C2.04525 12.9791 1.69063 12.8323 1.42918 12.5708C1.16772 12.3093 1.02084 11.9547 1.02084 11.585V6.76665C1.02084 6.39689 1.16772 6.04228 1.42918 5.78082C1.69063 5.51936 2.04525 5.37248 2.415 5.37248H3.69834C4.06708 5.37402 4.42019 5.52159 4.68039 5.78288C4.94059 6.04417 5.08667 6.3979 5.08667 6.76665V11.585C5.08667 11.9537 4.94059 12.3075 4.68039 12.5687C4.42019 12.83 4.06708 12.9776 3.69834 12.9791ZM2.415 6.24748C2.27731 6.24748 2.14526 6.30218 2.0479 6.39954C1.95053 6.4969 1.89584 6.62895 1.89584 6.76665V11.585C1.89584 11.6532 1.90926 11.7207 1.93536 11.7837C1.96145 11.8466 1.99969 11.9039 2.0479 11.9521C2.09611 12.0003 2.15334 12.0385 2.21633 12.0646C2.27931 12.0907 2.34682 12.1041 2.415 12.1041H3.69834C3.83501 12.1026 3.96557 12.0472 4.06168 11.95C4.15778 11.8528 4.21168 11.7217 4.21167 11.585V6.76665C4.21168 6.62996 4.15778 6.49878 4.06168 6.40159C3.96557 6.30439 3.83501 6.24902 3.69834 6.24748H2.415ZM11.5675 12.9791H7.385C7.01108 12.9776 6.65291 12.8284 6.3885 12.564C6.12409 12.2996 5.97487 11.9414 5.97334 11.5675V6.78998C5.97333 6.41504 6.12187 6.05538 6.38645 5.78971C6.65102 5.52405 7.01007 5.37402 7.385 5.37248H11.5675C11.9424 5.37402 12.3015 5.52405 12.5661 5.78971C12.8306 6.05538 12.9792 6.41504 12.9792 6.78998V11.5675C12.9776 11.9414 12.8284 12.2996 12.564 12.564C12.2996 12.8284 11.9414 12.9776 11.5675 12.9791ZM7.385 6.24748C7.24214 6.24902 7.10564 6.30685 7.00516 6.40842C6.90468 6.50999 6.84833 6.6471 6.84834 6.78998V11.5675C6.84834 11.7098 6.90488 11.8463 7.00552 11.947C7.10617 12.0476 7.24267 12.1041 7.385 12.1041H11.5675C11.7098 12.1041 11.8463 12.0476 11.947 11.947C12.0476 11.8463 12.1042 11.7098 12.1042 11.5675V6.78998C12.1042 6.6471 12.0478 6.50999 11.9473 6.40842C11.8469 6.30685 11.7104 6.24902 11.5675 6.24748H7.385Z" fill="#676A72"/>
</svg>
