<svg width="14" height="14" viewBox="0 0 14 14" fill="none" xmlns="http://www.w3.org/2000/svg">
<g clip-path="url(#clip0_3_3067)">
<path d="M12.8975 5.10419C12.9003 5.06925 12.9003 5.03414 12.8975 4.99919C12.8652 4.03698 12.4669 3.12336 11.784 2.44476C11.101 1.76616 10.1849 1.37373 9.2225 1.34753H6.41666C6.34286 1.34894 6.27062 1.36901 6.20666 1.40586C6.05319 1.19426 5.85133 1.02244 5.61794 0.904732C5.38454 0.78702 5.12638 0.726833 4.865 0.729193H3.605C2.84228 0.729193 2.1108 1.03218 1.57148 1.5715C1.03215 2.11083 0.729164 2.84231 0.729164 3.60503V9.95753C0.729164 10.8363 1.07825 11.679 1.69962 12.3004C2.32099 12.9218 3.16375 13.2709 4.0425 13.2709H9.9575C10.8362 13.2709 11.679 12.9218 12.3004 12.3004C12.9217 11.679 13.2708 10.8363 13.2708 9.95753V6.62086C13.2718 6.09244 13.1436 5.57179 12.8975 5.10419ZM11.6667 3.78586C11.1507 3.47477 10.56 3.30945 9.9575 3.30753H8.1025C7.77667 3.30798 7.45827 3.21028 7.18878 3.02715C6.91929 2.84402 6.71121 2.58396 6.59166 2.28086V2.24003H9.2575C9.76204 2.25271 10.2534 2.40353 10.6782 2.67609C11.103 2.94865 11.4449 3.3325 11.6667 3.78586ZM12.3783 9.95753C12.3783 10.5996 12.1233 11.2153 11.6693 11.6693C11.2153 12.1233 10.5995 12.3784 9.9575 12.3784H4.0425C3.40045 12.3784 2.7847 12.1233 2.33071 11.6693C1.87672 11.2153 1.62166 10.5996 1.62166 9.95753V3.60503C1.62166 3.07901 1.83062 2.57454 2.20257 2.2026C2.57452 1.83065 3.07898 1.62169 3.605 1.62169H4.865C5.01281 1.62042 5.15747 1.66447 5.27949 1.7479C5.40152 1.83134 5.49505 1.95015 5.5475 2.08836L5.7575 2.61336C5.94307 3.08091 6.26462 3.48204 6.68059 3.76489C7.09655 4.04775 7.5878 4.19933 8.09083 4.20003H9.94583C10.5879 4.20003 11.2036 4.45508 11.6576 4.90907C12.1116 5.36307 12.3667 5.97882 12.3667 6.62086L12.3783 9.95753Z" fill="#676A72"/>
</g>
<defs>
<clipPath id="clip0_3_3067">
<rect width="14" height="14" fill="white"/>
</clipPath>
</defs>
</svg>
