<svg width="36" height="28" viewBox="0 0 36 28" fill="none" xmlns="http://www.w3.org/2000/svg">
<path d="M5.83287 15.7337C6.07242 14.9791 6.31198 14.2239 6.55206 13.4697C6.8428 12.5575 7.53667 12.0548 8.49489 12.0522C12.151 12.0417 15.8066 12.0282 19.4628 12.0172C21.9966 12.0099 24.5298 12.0021 27.0636 12C28.4229 11.999 29.3072 13.2001 28.9004 14.4872C28.5516 15.5908 28.2007 16.6939 27.8493 17.7964C27.4567 19.0283 26.384 19.7997 25.0828 19.8117C21.4974 19.8451 17.9125 19.8868 14.3271 19.9238C11.7057 19.9509 9.08481 19.9796 6.46342 19.9999C5.43501 20.0078 4.76911 19.0998 5.07463 18.1229C5.32421 17.325 5.57959 16.5296 5.83287 15.7337Z" fill="#393B40"/>
<path d="M4.55949 25.9843C3.68009 25.9843 2.79824 25.9378 1.92314 25.9952C0.543337 26.0852 -0.313981 24.9388 0.108545 23.6207C1.43684 19.475 2.69767 15.3081 3.98487 11.1491C4.78148 8.57464 5.58299 6.00199 6.37531 3.42632C6.83034 1.94751 8.06051 1.03074 9.62981 1.02771C11.0709 1.02469 12.5127 1.02469 13.9538 1.02771C15.5127 1.03134 16.5668 2.42131 16.1069 3.88319C14.6934 8.37339 13.2731 12.8618 11.8522 17.3502C11.1182 19.6696 10.378 21.9872 9.63839 24.3054C9.28026 25.4283 8.50818 25.9849 7.32032 25.9855C6.40045 25.9855 5.48058 25.9855 4.5601 25.9855C4.55949 25.9855 4.55949 25.9849 4.55949 25.9843Z" fill="white"/>
<path d="M7.07543 5.32703C7.35384 4.45256 7.63226 3.57748 7.91128 2.70362C8.24857 1.64603 9.0556 1.06346 10.1693 1.06043C14.4184 1.04835 18.667 1.03263 22.9162 1.01994C25.8604 1.01148 28.8052 1.00302 31.7494 1C33.3291 0.998792 34.3569 2.39057 33.8841 3.88207C33.4787 5.16084 33.0709 6.43901 32.6625 7.71657C32.2063 9.144 30.9595 10.0378 29.4473 10.0517C25.2803 10.0904 21.1139 10.1387 16.9469 10.1816C13.9002 10.2131 10.8543 10.2463 7.80764 10.2699C6.61243 10.2789 5.83851 9.2268 6.19358 8.09488C6.48426 7.17085 6.78107 6.24924 7.07543 5.32703Z" fill="white"/>
</svg>
