<svg width="14" height="14" viewBox="0 0 14 14" fill="none" xmlns="http://www.w3.org/2000/svg">
<path d="M9.21818 13.76L2.92173 12.805C2.37056 12.7214 1.99155 12.2068 2.07514 11.6557L3.67907 1.0811C3.76266 0.529935 4.27724 0.150924 4.82838 0.234513L11.1248 1.18955C11.676 1.27314 12.055 1.78772 11.9714 2.33886L10.3675 12.9134C10.2839 13.4646 9.76935 13.8436 9.21818 13.76Z" fill="#DCDDDE"/>
<path d="M11.0615 1.54994C11.0615 1.41656 11.0382 1.28867 10.9956 1.16995L6.08464 0.425049H4.07162C3.86723 0.578283 3.72044 0.8086 3.6791 1.08111L2.07514 11.6557C1.99155 12.2068 2.37056 12.7214 2.92173 12.805L9.21818 13.76C9.76935 13.8436 10.2839 13.4646 10.3675 12.9134L11.0615 8.33792L11.0615 1.54994Z" fill="#DCDDDE"/>
<path d="M9.39473 13.7779H3.02627C2.46881 13.7779 2.0169 13.326 2.0169 12.7685V2.07303C2.0169 1.51557 2.46881 1.06366 3.02627 1.06366H9.39473C9.95219 1.06366 10.4041 1.51557 10.4041 2.07303V12.7686C10.4041 13.326 9.95219 13.7779 9.39473 13.7779Z" fill="#DCDDDE"/>
<path d="M8.4927 6.48293L7.87186 5.86209L6.34457 4.3348C6.27052 4.26075 6.15046 4.26075 6.07641 4.3348L4.54913 5.86209L3.92829 6.48293C3.46951 6.9417 3.46951 7.6855 3.92829 8.14428C4.38706 8.60305 5.13089 8.60305 5.58964 8.14428L5.79253 7.94139V8.87851C5.79253 9.24686 5.49391 9.54548 5.12556 9.54548C5.08274 9.54548 5.04804 9.58018 5.04804 9.623V9.91853C5.04804 10.0233 5.13294 10.1081 5.23764 10.1081H7.1832C7.28793 10.1081 7.37281 10.0232 7.37281 9.91853V9.623C7.37281 9.58018 7.33811 9.54548 7.29529 9.54548C6.92694 9.54548 6.62832 9.24686 6.62832 8.87851V7.94139L6.83121 8.14428C7.28998 8.60305 8.03379 8.60305 8.49259 8.14428C8.95147 7.6855 8.95147 6.9417 8.4927 6.48293Z" fill="#DCDDDE"/>
<path d="M7.2954 9.54549C6.92705 9.54549 6.62843 9.24687 6.62843 8.87852V8.15109C6.31556 8.90887 5.83032 9.57732 5.22124 10.1073C5.22668 10.1078 5.23215 10.1081 5.2377 10.1081H7.18326C7.28799 10.1081 7.37286 10.0232 7.37286 9.91851V9.62298C7.37289 9.58019 7.33819 9.54549 7.2954 9.54549Z" fill="#2C2D30"/>
<path d="M8.4927 6.48292L7.87186 5.86208L6.86006 4.85028C6.96659 5.26675 7.0233 5.70313 7.0233 6.1528C7.0233 6.80334 6.90441 7.42601 6.68777 8.00072L6.83132 8.14427C7.2901 8.60305 8.03393 8.60305 8.4927 8.14427C8.95147 7.6855 8.95147 6.94169 8.4927 6.48292Z" fill="#2C2D30"/>
<path d="M11.965 1.45717C11.7699 1.19231 11.4834 1.01931 11.1581 0.969982L4.86172 0.0149472C4.24507 -0.0787051 3.68419 0.276217 3.5061 0.841549H3.02625C2.34722 0.841549 1.79479 1.39397 1.79479 2.073V12.7685C1.79479 13.4476 2.34722 14 3.02625 14H9.39471C10.0737 14 10.6262 13.4476 10.6262 12.7685V12.6889L11.4546 7.227C11.473 7.10573 11.3896 6.99253 11.2684 6.97412C11.1472 6.95558 11.0339 7.03912 11.0155 7.16039L10.6262 9.72698V2.073C10.6262 1.77889 10.5224 1.50863 10.3497 1.29663L11.0916 1.40915C11.2995 1.44068 11.4827 1.55131 11.6074 1.72062C11.7321 1.88994 11.7834 2.09767 11.7519 2.30559L11.1608 6.20284C11.1424 6.32411 11.2258 6.43731 11.347 6.45571C11.3583 6.45744 11.3695 6.45826 11.3806 6.45826C11.4885 6.45826 11.5833 6.37942 11.5999 6.26942L12.191 2.3722C12.2404 2.04697 12.1601 1.72199 11.965 1.45717ZM10.182 12.7685C10.182 13.2026 9.82885 13.5558 9.39474 13.5558H3.02625C2.59214 13.5558 2.23896 13.2026 2.23896 12.7685V2.073C2.23896 1.63889 2.59214 1.28572 3.02625 1.28572H9.39471C9.82882 1.28572 10.182 1.63889 10.182 2.073V12.7685H10.182ZM3.98743 0.841521C4.04116 0.743576 4.11625 0.658291 4.20935 0.591435C4.37705 0.471014 4.58503 0.42226 4.79511 0.454088L7.34943 0.841521H3.98743Z" fill="#8E9198"/>
<path d="M3.63787 3.17427C3.67426 3.25786 3.75591 3.30774 3.84161 3.30774C3.87119 3.30774 3.9013 3.30178 3.93017 3.28923C4.04261 3.24025 4.0941 3.10939 4.04512 2.99692L3.64536 2.07894C3.61006 1.99792 3.53011 1.94553 3.44173 1.94553C3.35336 1.94553 3.2734 1.99792 3.2381 2.07894L2.83834 2.99692C2.78936 3.10939 2.84082 3.24025 2.95329 3.28923C3.06573 3.33812 3.19662 3.28671 3.24559 3.17427L3.44173 2.72387L3.63787 3.17427Z" fill="#8E9198"/>
<path d="M9.41396 11.4851C9.30144 11.4361 9.17063 11.4876 9.12166 11.6001L8.92552 12.0505L8.72938 11.6001C8.68041 11.4876 8.54957 11.4362 8.43708 11.4851C8.32464 11.5341 8.27315 11.665 8.32213 11.7774L8.72189 12.6954C8.75719 12.7764 8.83715 12.8288 8.92552 12.8288C9.0139 12.8288 9.09385 12.7765 9.12915 12.6954L9.52892 11.7774C9.57789 11.665 9.5264 11.5341 9.41396 11.4851Z" fill="#8E9198"/>
<path d="M8.64976 8.30133C9.19436 7.7567 9.19436 6.87051 8.64973 6.32588L6.36754 4.04369C6.2808 3.95695 6.14017 3.95695 6.05347 4.04369L5.60374 4.49341C5.51701 4.58015 5.51701 4.72077 5.60374 4.80748C5.69048 4.89422 5.83111 4.89422 5.91781 4.80748L6.21047 4.51482L8.33563 6.63998C8.70707 7.01142 8.70707 7.61582 8.3356 7.98726C7.96414 8.3587 7.35976 8.3587 6.98835 7.98729L6.78546 7.78437C6.72191 7.72082 6.62643 7.70185 6.54341 7.73622C6.46042 7.77056 6.40628 7.85158 6.40628 7.9414V8.87853C6.40628 9.31953 6.72905 9.68659 7.15074 9.75585V9.88604H5.27015V9.75585C5.69185 9.68659 6.01461 9.31953 6.01461 8.87853V7.9414C6.01461 7.85158 5.9605 7.77059 5.87748 7.73622C5.79455 7.70185 5.69898 7.72082 5.63546 7.78437L5.43257 7.98726C5.06113 8.3587 4.45673 8.35872 4.08529 7.98729C3.71385 7.61582 3.71385 7.01142 4.08526 6.63998L5.28109 5.44418C5.36782 5.35745 5.36782 5.21682 5.28109 5.13011C5.19435 5.04338 5.05372 5.04338 4.96702 5.13011L3.77119 6.32591C3.22656 6.87054 3.22659 7.75672 3.77122 8.30138C4.2604 8.79054 5.02512 8.8403 5.57041 8.45079V8.87853C5.57041 9.12386 5.37086 9.32341 5.12556 9.32341C4.96037 9.32341 4.82595 9.45781 4.82595 9.62302V10.1081C4.82595 10.2308 4.9254 10.3302 5.04804 10.3302H7.37283C7.49549 10.3302 7.59492 10.2308 7.59492 10.1081V9.62302C7.59492 9.45781 7.46052 9.32341 7.29531 9.32341C7.05001 9.32341 6.85045 9.12386 6.85045 8.87853V8.45076C7.39583 8.84033 8.16058 8.79056 8.64976 8.30133Z" fill="#8E9198"/>
</svg>
