<svg width="14" height="14" viewBox="0 0 14 14" fill="none" xmlns="http://www.w3.org/2000/svg">
<g clip-path="url(#clip0_6_1019)">
<path d="M9.68512 4.80557C9.63951 4.94613 9.67294 5.10048 9.77292 5.20942L10.4531 5.95155L10.339 6.95162C10.3222 7.09849 10.3858 7.24311 10.5054 7.32995C10.6251 7.41689 10.7822 7.4327 10.9167 7.37128L11.8326 6.95365L12.7484 7.37128C12.7526 7.37331 12.9581 7.47639 13.1596 7.32995C13.2792 7.24311 13.3428 7.09849 13.326 6.95162L13.2119 5.95155L13.8921 5.20942C13.9921 5.10048 14.0256 4.94613 13.9799 4.80557C13.9342 4.6649 13.8164 4.5598 13.6715 4.53032L12.685 4.32994L12.1895 3.45366C12.1168 3.32495 11.9804 3.24548 11.8326 3.24548C11.6846 3.24548 11.5482 3.32495 11.4755 3.45366L10.98 4.32994L9.99359 4.53032C9.84875 4.5598 9.73083 4.6649 9.68512 4.80557ZM11.3266 5.09652C11.443 5.07292 11.5435 4.99997 11.602 4.89657L11.8326 4.48877L12.0632 4.89657C12.1216 4.99997 12.2221 5.07292 12.3385 5.09652L12.7974 5.18977L12.4809 5.53498C12.4006 5.62257 12.3622 5.7407 12.3757 5.85862L12.4288 6.324L12.0027 6.12971C11.9487 6.10504 11.8906 6.09275 11.8326 6.09275C11.7745 6.09275 11.7163 6.10504 11.6623 6.12971L11.2362 6.324L11.2893 5.85862C11.3028 5.7407 11.2644 5.62257 11.1841 5.53498L10.8677 5.18977L11.3266 5.09652Z" fill="#676A72"/>
<path d="M0.788054 5.95155L0.673979 6.95162C0.65721 7.09849 0.720763 7.24311 0.840391 7.32995C0.96002 7.41689 1.11714 7.4327 1.25161 7.37128L2.16741 6.95365L3.08321 7.37128C3.08749 7.37331 3.29299 7.47639 3.49455 7.32995C3.61407 7.24311 3.67773 7.09849 3.66096 6.95162L3.54688 5.95155L4.22706 5.20942C4.32693 5.10048 4.36046 4.94613 4.31475 4.80557C4.26914 4.6649 4.15133 4.5598 4.00639 4.53032L3.01998 4.32994L2.52449 3.45366C2.45175 3.32495 2.31535 3.24548 2.16741 3.24548C2.01959 3.24548 1.88319 3.32495 1.81045 3.45366L1.31485 4.32994L0.328445 4.53032C0.183609 4.5598 0.0657958 4.6649 0.0200806 4.80557C-0.0256346 4.94613 0.0079041 5.10048 0.107879 5.20942L0.788054 5.95155ZM1.66156 5.09652C1.77798 5.07292 1.87838 4.99997 1.93681 4.89657L2.16741 4.48877L2.39802 4.89657C2.45655 4.99997 2.55696 5.07292 2.67338 5.09652L3.13224 5.18977L2.81587 5.53498C2.73554 5.62257 2.6972 5.7407 2.71066 5.85862L2.76374 6.324L2.33757 6.12971C2.28352 6.10504 2.22552 6.09275 2.16741 6.09275C2.10931 6.09275 2.05131 6.10504 1.99726 6.12971L1.57109 6.324L1.62417 5.85862C1.63763 5.7407 1.59929 5.62257 1.51907 5.53498L1.20259 5.18977L1.66156 5.09652Z" fill="#676A72"/>
<path d="M5.07194 4.38834L4.87957 6.07297C4.8628 6.21984 4.92635 6.36435 5.04598 6.4513C5.16561 6.53813 5.32273 6.55405 5.45731 6.49263L6.99999 5.78917L8.54266 6.49263C8.54694 6.49455 8.75244 6.59773 8.95399 6.4513C9.07362 6.36435 9.13718 6.21984 9.12041 6.07297L8.92815 4.38834L10.074 3.13854C10.1739 3.02949 10.2074 2.87525 10.1617 2.73458C10.116 2.59391 9.99829 2.48881 9.85335 2.45944L8.19168 2.1217L7.35706 0.645782C7.28421 0.517074 7.14782 0.4375 6.99999 0.4375C6.85206 0.4375 6.71576 0.517074 6.64292 0.645782L5.8083 2.1217L4.14663 2.45944C4.00169 2.48881 3.88388 2.59402 3.83827 2.73458C3.79255 2.87515 3.82609 3.02949 3.92596 3.13854L5.07194 4.38834ZM6.1549 2.88839C6.27132 2.86468 6.37183 2.79173 6.43026 2.68833L6.99999 1.68089L7.56972 2.68833C7.62825 2.79173 7.72866 2.86468 7.84508 2.88839L8.9791 3.11878L8.19702 3.97178C8.1167 4.05936 8.07836 4.1775 8.09181 4.29552L8.22308 5.44535L7.17014 4.96512C7.11609 4.94056 7.05799 4.92817 6.99999 4.92817C6.94188 4.92817 6.88378 4.94056 6.82973 4.96512L5.77679 5.44535L5.90806 4.29552C5.92151 4.1775 5.88317 4.05936 5.80285 3.97178L5.02078 3.11878L6.1549 2.88839Z" fill="#676A72"/>
<path d="M13.1841 11.4587L13.9345 10.2958C14.008 10.1817 14.0205 10.0386 13.9675 9.9136C13.9146 9.78852 13.8033 9.69784 13.6702 9.67125L11.8034 9.29783V8.75545C11.8034 8.57547 11.6867 8.42027 11.5217 8.3659C10.0647 7.85673 8.54352 7.59857 6.99999 7.59857C5.45646 7.59857 3.93514 7.85673 2.47824 8.3659C2.31332 8.42027 2.19657 8.57547 2.19657 8.75545V9.29783L0.329726 9.67125C0.196639 9.69784 0.0853416 9.78852 0.03247 9.9136C-0.0205084 10.0386 -0.00811829 10.1817 0.0654747 10.2958L0.815824 11.4587L0.0451806 12.9615C-0.0265966 13.1015 -0.0119635 13.2704 0.0829917 13.396C0.178161 13.5219 0.336775 13.5816 0.490584 13.5508L2.68716 13.1115C2.87888 13.0732 3.01688 12.9049 3.01688 12.7094V11.6859C4.30482 11.2671 5.64316 11.0549 6.99999 11.0549C8.35681 11.0549 9.69526 11.2671 10.9831 11.6859V12.7094C10.9831 12.9049 11.1211 13.0732 11.3128 13.1115L13.5094 13.5508C13.663 13.5816 13.8217 13.5221 13.9171 13.396C14.0119 13.2704 14.0267 13.1015 13.9548 12.9615L13.1841 11.4587ZM2.19657 12.373L1.16275 12.5798L1.65376 11.6225C1.72062 11.4921 1.71283 11.336 1.63346 11.213L1.08146 10.3574L2.19657 10.1344V12.373ZM3.01688 10.8259V9.04982C4.30482 8.63112 5.64316 8.41888 6.99999 8.41888C8.35681 8.41888 9.69516 8.63112 10.9831 9.04982V10.8259C9.69152 10.4332 8.35425 10.2346 6.99999 10.2346C5.64572 10.2346 4.30855 10.4332 3.01688 10.8259ZM12.3462 11.6225L12.8372 12.5798L11.8034 12.373V10.1344L12.9185 10.3574L12.3665 11.213C12.2871 11.336 12.2793 11.4922 12.3462 11.6225Z" fill="#676A72"/>
</g>
<defs>
<clipPath id="clip0_6_1019">
<rect width="14" height="14" fill="white"/>
</clipPath>
</defs>
</svg>
