<svg width="22" height="22" viewBox="0 0 22 22" fill="none" xmlns="http://www.w3.org/2000/svg">
<path opacity="0.1" d="M14.4619 1.23758H7.50074C5.83216 1.25903 4.2392 1.93697 3.0669 3.12454C1.8946 4.31211 1.23734 5.9137 1.23748 7.58242V14.3261C1.23734 15.9948 1.8946 17.5964 3.0669 18.784C4.2392 19.9715 5.83216 20.6495 7.50074 20.6709H14.4619C16.1305 20.6495 17.7235 19.9715 18.8958 18.784C20.0681 17.5964 20.7253 15.9948 20.7252 14.3261V7.60961C20.7253 5.94089 20.0681 4.3393 18.8958 3.15173C17.7235 1.96416 16.1305 1.28623 14.4619 1.26477V1.23758Z" fill="#8E9198"/>
<path d="M14.52 2.47504C15.1893 2.48103 15.8509 2.6188 16.467 2.88048C17.083 3.14217 17.6415 3.52263 18.1105 4.00017C18.5795 4.4777 18.9499 5.04294 19.2005 5.66361C19.451 6.28428 19.5769 6.94823 19.5708 7.61754V14.4375C19.5769 15.1068 19.451 15.7708 19.2005 16.3915C18.9499 17.0121 18.5795 17.5774 18.1105 18.0549C17.6415 18.5324 17.083 18.9129 16.467 19.1746C15.8509 19.4363 15.1893 19.574 14.52 19.58H7.48C6.81069 19.574 6.14911 19.4363 5.53305 19.1746C4.91698 18.9129 4.35849 18.5324 3.88947 18.0549C3.42046 17.5774 3.05009 17.0121 2.79953 16.3915C2.54897 15.7708 2.42312 15.1068 2.42917 14.4375V7.61754C2.42312 6.94823 2.54897 6.28428 2.79953 5.66361C3.05009 5.04294 3.42046 4.4777 3.88947 4.00017C4.35849 3.52263 4.91698 3.14217 5.53305 2.88048C6.14911 2.6188 6.81069 2.48103 7.48 2.47504H14.52ZM13.3833 6.2517H14.025C12.3512 8.2484 9.96957 9.51972 7.37917 9.7992C7.20655 9.7992 7.04101 9.86777 6.91896 9.98983C6.7969 10.1119 6.72833 10.2774 6.72833 10.45C6.72833 10.6226 6.7969 10.7882 6.91896 10.9102C7.04101 11.0323 7.20655 11.1009 7.37917 11.1009C10.2047 10.8337 12.8245 9.50746 14.7125 7.38837V7.6267C14.7125 7.79688 14.7801 7.96009 14.9004 8.08043C15.0208 8.20077 15.184 8.26837 15.3542 8.26837C15.5243 8.26837 15.6876 8.20077 15.8079 8.08043C15.9282 7.96009 15.9958 7.79688 15.9958 7.6267V5.60087C15.9958 5.60087 15.9958 5.60087 15.9958 5.54587V5.41754C15.9845 5.37934 15.9692 5.34247 15.95 5.30754C15.9341 5.27072 15.9125 5.23668 15.8858 5.2067L15.8033 5.10587H15.7392C15.703 5.04891 15.6478 5.00667 15.5833 4.9867C15.5411 4.97723 15.4973 4.97723 15.455 4.9867H15.3908H13.3833C13.2229 5.00571 13.0749 5.08294 12.9676 5.20374C12.8603 5.32454 12.801 5.48052 12.801 5.64212C12.801 5.80372 12.8603 5.9597 12.9676 6.0805C13.0749 6.2013 13.2229 6.27853 13.3833 6.29754M15.3817 17.3525C15.4667 17.3525 15.5509 17.3356 15.6294 17.3028C15.7078 17.27 15.779 17.2219 15.8387 17.1614C15.8984 17.1008 15.9454 17.029 15.9771 16.9501C16.0088 16.8712 16.0245 16.7867 16.0233 16.7017V10.8259C16.0233 10.7416 16.0067 10.6582 15.9745 10.5803C15.9422 10.5025 15.895 10.4317 15.8354 10.3721C15.7758 10.3126 15.7051 10.2653 15.6272 10.233C15.5494 10.2008 15.4659 10.1842 15.3817 10.1842C15.2974 10.1842 15.214 10.2008 15.1361 10.233C15.0583 10.2653 14.9875 10.3126 14.9279 10.3721C14.8684 10.4317 14.8211 10.5025 14.7888 10.5803C14.7566 10.6582 14.74 10.7416 14.74 10.8259V16.6559C14.7388 16.7409 14.7545 16.8253 14.7862 16.9042C14.8179 16.9832 14.865 17.055 14.9247 17.1155C14.9844 17.1761 15.0555 17.2242 15.134 17.257C15.2124 17.2898 15.2966 17.3067 15.3817 17.3067M11.3117 17.3067C11.3967 17.3067 11.4809 17.2898 11.5594 17.257C11.6378 17.2242 11.709 17.1761 11.7687 17.1155C11.8284 17.055 11.8754 16.9832 11.9071 16.9042C11.9388 16.8253 11.9545 16.7409 11.9533 16.6559V13.1175C11.9533 12.9474 11.8857 12.7841 11.7654 12.6638C11.6451 12.5435 11.4818 12.4759 11.3117 12.4759C11.1415 12.4759 10.9783 12.5435 10.8579 12.6638C10.7376 12.7841 10.67 12.9474 10.67 13.1175V16.6559C10.6688 16.7409 10.6845 16.8253 10.7162 16.9042C10.7479 16.9832 10.795 17.055 10.8547 17.1155C10.9144 17.1761 10.9855 17.2242 11.064 17.257C11.1424 17.2898 11.2266 17.3067 11.3117 17.3067ZM7.18667 17.3067C7.27171 17.3067 7.3559 17.2898 7.43436 17.257C7.51281 17.2242 7.58396 17.1761 7.64366 17.1155C7.70337 17.055 7.75044 16.9832 7.78214 16.9042C7.81385 16.8253 7.82955 16.7409 7.82833 16.6559V14.2084C7.83916 14.1183 7.83076 14.0269 7.80368 13.9403C7.77661 13.8538 7.73148 13.7739 7.67128 13.706C7.61108 13.6381 7.53716 13.5838 7.45442 13.5466C7.37167 13.5094 7.28198 13.4901 7.19125 13.4901C7.10052 13.4901 7.01083 13.5094 6.92808 13.5466C6.84534 13.5838 6.77142 13.6381 6.71122 13.706C6.65101 13.7739 6.60589 13.8538 6.57881 13.9403C6.55174 14.0269 6.54334 14.1183 6.55417 14.2084V16.6559C6.55295 16.7401 6.56835 16.8238 6.59948 16.9021C6.63062 16.9804 6.67687 17.0519 6.7356 17.1123C6.79434 17.1727 6.8644 17.221 6.9418 17.2544C7.01919 17.2877 7.1024 17.3055 7.18667 17.3067ZM14.52 1.17337H7.48C5.79253 1.19507 4.18154 1.88067 2.99597 3.08169C1.8104 4.2827 1.14569 5.90243 1.14583 7.59004V14.41C1.14569 16.0976 1.8104 17.7174 2.99597 18.9184C4.18154 20.1194 5.79253 20.805 7.48 20.8267H14.52C16.2075 20.805 17.8185 20.1194 19.004 18.9184C20.1896 17.7174 20.8543 16.0976 20.8542 14.41V7.61754C20.8543 5.92993 20.1896 4.3102 19.004 3.10919C17.8185 1.90817 16.2075 1.22257 14.52 1.20087V1.17337Z" fill="#8E9198"/>
</svg>
