<svg width="14" height="14" viewBox="0 0 14 14" fill="none" xmlns="http://www.w3.org/2000/svg">
<g clip-path="url(#clip0_6_1001)">
<path opacity="0.3" d="M9.94613 0.875H4.05388C2.29823 0.875 0.875 2.29823 0.875 4.05388V9.94613C0.875 11.7018 2.29823 13.125 4.05388 13.125H9.94613C11.7018 13.125 13.125 11.7018 13.125 9.94613V4.05388C13.125 2.29823 11.7018 0.875 9.94613 0.875Z" fill="#676A72"/>
<path d="M5.1625 0.875H4.05388C3.21079 0.875 2.40223 1.20992 1.80607 1.80607C1.20992 2.40223 0.875 3.21079 0.875 4.05388V9.94613C0.875 10.7892 1.20992 11.5978 1.80607 12.1939C2.40223 12.7901 3.21079 13.125 4.05388 13.125H5.1625V0.875Z" fill="#676A72"/>
</g>
<defs>
<clipPath id="clip0_6_1001">
<rect width="14" height="14" fill="white"/>
</clipPath>
</defs>
</svg>
