<svg width="22" height="22" viewBox="0 0 22 22" fill="none" xmlns="http://www.w3.org/2000/svg">
<path d="M18.3304 7.96641V6.13746C18.3304 5.65239 18.1378 5.18719 17.7948 4.8442C17.4518 4.50121 16.9866 4.30851 16.5015 4.30851V3.69887C16.5015 3.2138 16.3088 2.7486 15.9658 2.4056C15.6228 2.06261 15.1576 1.86992 14.6726 1.86992H7.35676C6.8717 1.86992 6.4065 2.06261 6.0635 2.4056C5.72051 2.7486 5.52782 3.2138 5.52782 3.69887V4.30851C5.04275 4.30851 4.57755 4.50121 4.23456 4.8442C3.89156 5.18719 3.69887 5.65239 3.69887 6.13746V7.96641C3.2138 7.96641 2.7486 8.1591 2.40561 8.50209C2.06261 8.84509 1.86992 9.31029 1.86992 9.79535V18.3304C1.86992 18.8155 2.06261 19.2807 2.40561 19.6237C2.7486 19.9667 3.2138 20.1594 3.69887 20.1594H18.3304C18.8155 20.1594 19.2807 19.9667 19.6237 19.6237C19.9667 19.2807 20.1594 18.8155 20.1594 18.3304V9.79535C20.1594 9.31029 19.9667 8.84509 19.6237 8.50209C19.2807 8.1591 18.8155 7.96641 18.3304 7.96641ZM6.74711 3.69887C6.74711 3.53718 6.81135 3.38211 6.92568 3.26778C7.04001 3.15345 7.19507 3.08922 7.35676 3.08922H14.6726C14.8342 3.08922 14.9893 3.15345 15.1036 3.26778C15.218 3.38211 15.2822 3.53718 15.2822 3.69887V4.30851H6.74711V3.69887ZM4.91817 6.13746C4.91817 5.97577 4.9824 5.82071 5.09673 5.70637C5.21106 5.59204 5.36613 5.52781 5.52782 5.52781H16.5015C16.6632 5.52781 16.8183 5.59204 16.9326 5.70637C17.0469 5.82071 17.1111 5.97577 17.1111 6.13746V7.96641H4.91817V6.13746ZM18.9401 18.3304C18.9401 18.4921 18.8759 18.6472 18.7615 18.7615C18.6472 18.8759 18.4921 18.9401 18.3304 18.9401H3.69887C3.53718 18.9401 3.38211 18.8759 3.26778 18.7615C3.15345 18.6472 3.08922 18.4921 3.08922 18.3304V9.79535C3.08922 9.63367 3.15345 9.4786 3.26778 9.36427C3.38211 9.24994 3.53718 9.18571 3.69887 9.18571H18.3304C18.4921 9.18571 18.6472 9.24994 18.7615 9.36427C18.8759 9.4786 18.9401 9.63367 18.9401 9.79535V18.3304Z" fill="#8E9198"/>
<rect x="8" y="14.9415" width="1.19167" height="6" rx="0.595833" transform="rotate(-90 8 14.9415)" fill="#8E9198"/>
</svg>
