<svg width="14" height="14" viewBox="0 0 14 14" fill="none" xmlns="http://www.w3.org/2000/svg">
<g clip-path="url(#clip0_3_3035)">
<path opacity="0.1" d="M11.3921 13.0665H9.45506C9.00177 13.0665 8.56704 12.8864 8.24652 12.5659C7.92599 12.2453 7.74592 11.8106 7.74592 11.3573V8.81071C7.74544 8.70165 7.72088 8.59404 7.674 8.49557C7.62711 8.3971 7.55906 8.31021 7.4747 8.24109C7.39034 8.17197 7.29176 8.12233 7.18599 8.09572C7.08023 8.06912 6.96989 8.0662 6.86287 8.08717C6.68514 8.12583 6.52667 8.22577 6.41522 8.36951C6.30377 8.51325 6.24645 8.69162 6.25328 8.87337V11.3345C6.25328 11.7878 6.07321 12.2225 5.75268 12.5431C5.43216 12.8636 4.99743 13.0437 4.54414 13.0437H2.58433C2.13103 13.0437 1.69631 12.8636 1.37578 12.5431C1.05526 12.2225 0.875188 11.7878 0.875188 11.3345V6.56604C0.870427 6.14665 0.955985 5.73116 1.12605 5.34778C1.29611 4.96439 1.5467 4.6221 1.86079 4.34416L5.14234 1.49559C5.6575 1.0573 6.31182 0.816612 6.9882 0.816612C7.66459 0.816612 8.31891 1.0573 8.83407 1.49559L12.1099 4.34416C12.4279 4.61932 12.683 4.95961 12.858 5.34197C13.0329 5.72434 13.1237 6.13985 13.124 6.56034V11.3345C13.1271 11.5628 13.0844 11.7894 12.9984 12.0009C12.9125 12.2124 12.785 12.4046 12.6236 12.566C12.4621 12.7275 12.27 12.8549 12.0585 12.9409C11.847 13.0268 11.6204 13.0695 11.3921 13.0665Z" fill="#676A72"/>
<path d="M11.4473 13.2006H9.4872C9.02852 13.2006 8.58862 13.0184 8.26427 12.6941C7.93993 12.3697 7.75772 11.9298 7.75772 11.4711V8.89419C7.75723 8.78383 7.73238 8.67495 7.68494 8.57531C7.63749 8.47567 7.56863 8.38774 7.48327 8.31779C7.3979 8.24785 7.29815 8.19762 7.19112 8.1707C7.0841 8.14377 6.97245 8.14082 6.86415 8.16204C6.68431 8.20116 6.52396 8.3023 6.41118 8.44775C6.2984 8.5932 6.24039 8.77369 6.2473 8.95761V11.4481C6.2473 11.9068 6.06509 12.3467 5.74075 12.671C5.41641 12.9953 4.97651 13.1775 4.51782 13.1775H2.53468C2.07599 13.1775 1.63609 12.9953 1.31175 12.671C0.987404 12.3467 0.805191 11.9068 0.805191 11.4481V6.6228C0.800373 6.19843 0.886949 5.77798 1.05904 5.39004C1.23113 5.00209 1.4847 4.65573 1.80253 4.37447L5.12314 1.492C5.64443 1.04848 6.30654 0.804932 6.99098 0.804932C7.67542 0.804932 8.33753 1.04848 8.85882 1.492L12.1737 4.37447C12.4954 4.65291 12.7536 4.99725 12.9306 5.38417C13.1077 5.77108 13.1995 6.19154 13.1998 6.61704V11.4481C13.2029 11.6791 13.1597 11.9084 13.0727 12.1224C12.9858 12.3364 12.8568 12.5309 12.6934 12.6942C12.5301 12.8576 12.3356 12.9865 12.1216 13.0735C11.9076 13.1605 11.6783 13.2037 11.4473 13.2006ZM6.99098 7.29154C7.41656 7.29153 7.8248 7.4602 8.12627 7.76059C8.42775 8.06098 8.59788 8.46861 8.5994 8.89419V11.4481C8.5994 11.6835 8.69294 11.9093 8.85943 12.0758C9.02593 12.2423 9.25175 12.3359 9.4872 12.3359H11.4473C11.5644 12.3366 11.6804 12.3142 11.7888 12.2699C11.8972 12.2257 11.9957 12.1604 12.0788 12.0779C12.1618 11.9954 12.2278 11.8972 12.2727 11.7891C12.3177 11.6811 12.3409 11.5651 12.3409 11.4481V6.61704C12.3392 6.31442 12.2724 6.01571 12.1451 5.74117C12.0177 5.46663 11.8328 5.22269 11.6029 5.02591L8.28809 2.14344C7.92487 1.83323 7.46288 1.6628 6.98522 1.6628C6.50755 1.6628 6.04556 1.83323 5.68234 2.14344L2.37902 5.03168C2.14868 5.22775 1.96386 5.47167 1.83741 5.74647C1.71097 6.02126 1.64595 6.32031 1.64687 6.6228V11.4481C1.64687 11.5651 1.67002 11.6811 1.715 11.7891C1.75998 11.8972 1.82589 11.9954 1.90894 12.0779C1.99199 12.1604 2.09054 12.2257 2.19892 12.2699C2.3073 12.3142 2.42337 12.3366 2.54044 12.3359H4.50052C4.73498 12.3343 4.95932 12.2401 5.12457 12.0738C5.28982 11.9075 5.38257 11.6825 5.38256 11.4481V8.95761C5.37811 8.56903 5.5101 8.19121 5.75555 7.88993C6.00099 7.58865 6.34434 7.38302 6.72579 7.30883C6.8137 7.29714 6.9023 7.29137 6.99098 7.29154Z" fill="#676A72"/>
</g>
<defs>
<clipPath id="clip0_3_3035">
<rect width="14" height="14" fill="white"/>
</clipPath>
</defs>
</svg>
