<svg width="22" height="22" viewBox="0 0 22 22" fill="none" xmlns="http://www.w3.org/2000/svg">
<g clip-path="url(#clip0_3_3012)">
<path opacity="0.1" fill-rule="evenodd" clip-rule="evenodd" d="M17.4565 1.83301C18.3379 1.8358 19.1827 2.18736 19.8061 2.81055C20.4293 3.43383 20.7807 4.27872 20.7836 5.16016V11.498C20.7722 12.2262 20.5219 12.9306 20.0717 13.5029C19.6212 14.0752 18.0794 14.4845 17.3744 14.667V9.38574C17.3744 8.08316 17.417 8.24985 16.8529 6.8291C16.7786 6.75481 16.7009 6.68422 16.6225 6.61524C17.1065 7.32738 17.3715 8.17346 17.3715 9.04688V14.5811C17.3715 15.7283 16.9151 16.8294 16.1039 17.6406C15.2927 18.4516 14.1923 18.9072 13.0453 18.9072H11.8178C11.7649 18.906 11.7125 18.9181 11.6654 18.9424C11.6183 18.9668 11.5779 19.0029 11.5482 19.0469L10.7104 20.2285C10.5387 20.4791 10.3085 20.6842 10.0395 20.8252C9.77028 20.9663 9.47032 21.0386 9.16641 21.0371C8.86254 21.0386 8.56252 20.9663 8.29337 20.8252C8.02437 20.6842 7.79412 20.4791 7.62247 20.2285L6.78555 19.0469C6.75655 19.0022 6.71566 18.9659 6.66837 18.9414C6.62112 18.917 6.56818 18.9051 6.51505 18.9072H5.38028C4.80839 18.9134 4.24049 18.8064 3.71036 18.5918C3.18031 18.3772 2.69794 18.0594 2.29141 17.6572C1.8849 17.255 1.56247 16.7758 1.34219 16.248C1.12191 15.7202 1.00818 15.153 1.00821 14.5811V9.04688C1.00818 8.475 1.12198 7.90864 1.34219 7.38086C1.56243 6.85312 1.88494 6.37391 2.29141 5.97168C2.69789 5.56953 3.18037 5.25174 3.71036 5.03711C4.24049 4.82251 4.80839 4.71458 5.38028 4.72071H5.65958C5.8665 3.93356 6.20756 2.94293 6.65372 2.5791C7.24657 2.09596 7.98854 1.83207 8.75333 1.83301H17.4565Z" fill="#8E9198"/>
<path d="M15.9982 15.1944V9.01518C15.9957 8.23377 15.6842 7.48507 15.1316 6.93253C14.5791 6.37999 13.8304 6.06848 13.049 6.06602H4.62281V5.27021C4.62279 4.12043 5.07761 3.01733 5.88799 2.20169C6.69837 1.38605 7.7985 0.924105 8.94825 0.916687H16.6629C17.8175 0.916687 18.9248 1.37536 19.7413 2.1918C20.5577 3.00825 21.0164 4.11558 21.0164 5.27021V10.8877C21.014 12.0326 20.5607 13.1305 19.7546 13.9436C18.9485 14.7567 17.8546 15.2195 16.7097 15.2318L15.9982 15.1944ZM13.049 4.66165C14.2036 4.66165 15.311 5.12033 16.1274 5.93677C16.9438 6.75321 17.4025 7.86055 17.4025 9.01518V13.6964C18.0274 13.5346 18.582 13.1722 18.9812 12.6648C19.3803 12.1574 19.6019 11.5331 19.612 10.8877V5.27021C19.6096 4.4888 19.2981 3.74011 18.7455 3.18757C18.193 2.63503 17.4443 2.32352 16.6629 2.32105H8.94825C8.27035 2.32022 7.61299 2.5537 7.08749 2.98195C6.56199 3.41019 6.20064 4.0069 6.06463 4.67102L13.049 4.66165ZM9.19167 21.0833C8.8858 21.0848 8.58421 21.0114 8.31328 20.8694C8.04235 20.7274 7.81033 20.5212 7.63751 20.2688L6.7949 19.0798C6.76571 19.0348 6.72533 18.9982 6.67773 18.9736C6.63012 18.949 6.57693 18.9372 6.52339 18.9393H5.38117C4.80553 18.9455 4.23438 18.8375 3.70077 18.6215C3.16716 18.4055 2.68169 18.0858 2.27246 17.6809C1.86322 17.276 1.53835 16.794 1.31665 16.2627C1.09494 15.7315 0.980802 15.1615 0.980835 14.5858V9.01518C0.980802 8.4395 1.09494 7.86954 1.31665 7.33827C1.53835 6.807 1.86322 6.32498 2.27246 5.9201C2.68169 5.51522 3.16716 5.19552 3.70077 4.97951C4.23438 4.7635 4.80553 4.65546 5.38117 4.66165H13.0958C14.2504 4.66165 15.3578 5.12033 16.1742 5.93677C16.9907 6.75321 17.4493 7.86055 17.4493 9.01518V14.5858C17.4493 15.7404 16.9907 16.8478 16.1742 17.6642C15.3578 18.4807 14.2504 18.9393 13.0958 18.9393H11.86C11.8066 18.9381 11.7537 18.9503 11.7062 18.9748C11.6588 18.9994 11.6183 19.0355 11.5885 19.0798L10.7458 20.2688C10.573 20.5212 10.341 20.7274 10.0701 20.8694C9.79914 21.0114 9.49755 21.0848 9.19167 21.0833ZM5.38117 6.06602C4.9903 6.06107 4.60232 6.13363 4.23966 6.2795C3.87699 6.42538 3.54683 6.64168 3.26825 6.9159C2.98967 7.19013 2.7682 7.51684 2.61663 7.87716C2.46506 8.23749 2.3864 8.62427 2.3852 9.01518V14.5858C2.38265 14.9786 2.45862 15.368 2.60863 15.7311C2.75864 16.0942 2.97968 16.4236 3.25877 16.7001C3.53785 16.9765 3.86936 17.1945 4.23383 17.3411C4.5983 17.4876 4.98838 17.5599 5.38117 17.5537H6.52339C6.80279 17.5523 7.07833 17.6189 7.32625 17.7478C7.57417 17.8767 7.78703 18.0639 7.94647 18.2933L8.77973 19.4262C8.82616 19.4924 8.8878 19.5465 8.95948 19.584C9.03117 19.6215 9.11079 19.6412 9.19167 19.6415C9.27256 19.6412 9.35218 19.6215 9.42386 19.584C9.49554 19.5465 9.55719 19.4924 9.60362 19.4262L10.4369 18.2372C10.6024 18.0181 10.818 17.8417 11.0655 17.7228C11.3131 17.6039 11.5855 17.5459 11.86 17.5537H13.049C13.8312 17.5537 14.5813 17.243 15.1344 16.6899C15.6874 16.1368 15.9982 15.3867 15.9982 14.6045V9.01518C15.9957 8.23377 15.6842 7.48507 15.1316 6.93253C14.5791 6.37999 13.8304 6.06848 13.049 6.06602H5.38117ZM5.92419 11C5.75013 11 5.57998 11.0516 5.43525 11.1483C5.29053 11.245 5.17772 11.3825 5.11111 11.5433C5.0445 11.7041 5.02708 11.8811 5.06103 12.0518C5.09499 12.2225 5.17881 12.3793 5.30189 12.5024C5.42497 12.6255 5.58178 12.7093 5.7525 12.7432C5.92321 12.7772 6.10017 12.7598 6.26098 12.6932C6.42179 12.6265 6.55924 12.5137 6.65594 12.369C6.75264 12.2243 6.80426 12.0541 6.80426 11.8801C6.80182 11.6474 6.70832 11.425 6.5438 11.2605C6.37928 11.0959 6.15684 11.0024 5.92419 11ZM9.20104 11C9.02869 10.9967 8.85916 11.0441 8.7135 11.1363C8.56783 11.2284 8.45245 11.3614 8.38167 11.5185C8.31088 11.6757 8.28782 11.8502 8.31533 12.0204C8.34285 12.1906 8.41974 12.3489 8.53645 12.4758C8.65316 12.6026 8.80456 12.6924 8.97185 12.734C9.13914 12.7756 9.31496 12.7671 9.47748 12.7096C9.64 12.6522 9.78207 12.5483 9.88605 12.4108C9.99003 12.2733 10.0513 12.1083 10.0624 11.9363C10.0687 11.8179 10.0512 11.6995 10.0111 11.588C9.97101 11.4764 9.90901 11.3741 9.82876 11.2868C9.74852 11.1996 9.65165 11.1293 9.54385 11.0801C9.43606 11.0308 9.3195 11.0036 9.20104 11ZM12.4685 11C12.2945 11 12.1243 11.0516 11.9796 11.1483C11.8349 11.245 11.7221 11.3825 11.6554 11.5433C11.5888 11.7041 11.5714 11.8811 11.6054 12.0518C11.6393 12.2225 11.7231 12.3793 11.8462 12.5024C11.9693 12.6255 12.1261 12.7093 12.2968 12.7432C12.4675 12.7772 12.6445 12.7598 12.8053 12.6932C12.9661 12.6265 13.1036 12.5137 13.2003 12.369C13.297 12.2243 13.3486 12.0541 13.3486 11.8801C13.3462 11.6474 13.2526 11.425 13.0881 11.2605C12.9236 11.0959 12.7012 11.0024 12.4685 11Z" fill="#8E9198"/>
</g>
<defs>
<clipPath id="clip0_3_3012">
<rect width="22" height="22" fill="white"/>
</clipPath>
</defs>
</svg>
