<svg width="14" height="14" viewBox="0 0 14 14" fill="none" xmlns="http://www.w3.org/2000/svg">
<g clip-path="url(#clip0_6_946)">
<path d="M7 13.265C6.7804 13.2637 6.56427 13.2101 6.3695 13.1087C6.17474 13.0072 6.00694 12.8609 5.88 12.6817L5.25 11.7542C5.21654 11.7061 5.17209 11.6667 5.12034 11.6393C5.06859 11.6119 5.01105 11.5973 4.9525 11.5967H4.00166C3.13374 11.5967 2.30137 11.2519 1.68766 10.6382C1.07394 10.0244 0.729164 9.19208 0.729164 8.32416V4.00166C0.729164 3.13374 1.07394 2.30136 1.68766 1.68765C2.30137 1.07394 3.13374 0.729156 4.00166 0.729156H9.99833C10.4281 0.729156 10.8536 0.813802 11.2507 0.978261C11.6477 1.14272 12.0085 1.38377 12.3123 1.68765C12.6162 1.99153 12.8573 2.35229 13.0217 2.74932C13.1862 3.14636 13.2708 3.57191 13.2708 4.00166V8.32416C13.2708 8.75391 13.1862 9.17945 13.0217 9.57649C12.8573 9.97353 12.6162 10.3343 12.3123 10.6382C12.0085 10.942 11.6477 11.1831 11.2507 11.3476C10.8536 11.512 10.4281 11.5967 9.99833 11.5967H9.07083C9.01228 11.5973 8.95474 11.6119 8.90299 11.6393C8.85124 11.6667 8.80679 11.7061 8.77333 11.7542L8.12 12.6817C7.99306 12.8609 7.82526 13.0072 7.63049 13.1087C7.43573 13.2101 7.21959 13.2637 7 13.265ZM4.00166 1.59832C3.68633 1.59832 3.37409 1.66053 3.08283 1.78138C2.79157 1.90223 2.52701 2.07935 2.30431 2.3026C2.08161 2.52584 1.90513 2.79083 1.78499 3.08238C1.66484 3.37393 1.6034 3.68632 1.60416 4.00166V8.32416C1.60416 8.96001 1.85676 9.56983 2.30638 10.0194C2.75599 10.4691 3.36581 10.7217 4.00166 10.7217H4.92916C5.12852 10.7222 5.32482 10.7707 5.50148 10.8631C5.67814 10.9555 5.82998 11.0891 5.94416 11.2525L6.59166 12.1742C6.63956 12.237 6.70133 12.288 6.77216 12.3231C6.84299 12.3582 6.92096 12.3764 7 12.3764C7.07904 12.3764 7.15701 12.3582 7.22784 12.3231C7.29866 12.288 7.36043 12.237 7.40833 12.1742L8.05583 11.2525C8.17002 11.0891 8.32185 10.9555 8.49851 10.8631C8.67517 10.7707 8.87147 10.7222 9.07083 10.7217H9.99833C10.6342 10.7217 11.244 10.4691 11.6936 10.0194C12.1432 9.56983 12.3958 8.96001 12.3958 8.32416V4.00166C12.3966 3.68632 12.3352 3.37393 12.215 3.08238C12.0949 2.79083 11.9184 2.52584 11.6957 2.3026C11.473 2.07935 11.2084 1.90223 10.9172 1.78138C10.6259 1.66053 10.3137 1.59832 9.99833 1.59832H4.00166ZM10.2142 5.02832C10.2127 4.91276 10.1661 4.80236 10.0844 4.72063C10.0026 4.63891 9.89223 4.59233 9.77666 4.59082H4.22333C4.1073 4.59082 3.99602 4.63692 3.91397 4.71896C3.83192 4.80101 3.78583 4.91229 3.78583 5.02832C3.78583 5.14436 3.83192 5.25563 3.91397 5.33768C3.99602 5.41973 4.1073 5.46582 4.22333 5.46582H9.77666C9.89223 5.46431 10.0026 5.41773 10.0844 5.33601C10.1661 5.25429 10.2127 5.14389 10.2142 5.02832ZM9.28666 7.94499C9.28666 7.82896 9.24057 7.71768 9.15852 7.63563C9.07648 7.55358 8.9652 7.50749 8.84916 7.50749H5.15083C5.0348 7.50749 4.92352 7.55358 4.84147 7.63563C4.75942 7.71768 4.71333 7.82896 4.71333 7.94499C4.71333 8.06102 4.75942 8.1723 4.84147 8.25435C4.92352 8.3364 5.0348 8.38249 5.15083 8.38249H8.84916C8.9652 8.38249 9.07648 8.3364 9.15852 8.25435C9.24057 8.1723 9.28666 8.06102 9.28666 7.94499Z" fill="#676A72"/>
</g>
<defs>
<clipPath id="clip0_6_946">
<rect width="14" height="14" fill="white"/>
</clipPath>
</defs>
</svg>
