<svg width="22" height="22" viewBox="0 0 22 22" fill="none" xmlns="http://www.w3.org/2000/svg">
<path opacity="0.1" fill-rule="evenodd" clip-rule="evenodd" d="M17.9762 1.22876C18.7175 1.22886 19.4285 1.52295 19.9528 2.04712C20.4771 2.57144 20.7721 3.28316 20.7721 4.02466C20.772 4.57745 20.6075 5.11775 20.3004 5.57739C20.2915 5.59075 20.2813 5.60327 20.2721 5.61646C20.4784 6.23639 20.5885 6.89027 20.5885 7.55591V14.6086C20.5885 16.2381 19.9409 17.8011 18.7887 18.9534C17.6364 20.1057 16.0736 20.7532 14.444 20.7532H7.39125C5.76167 20.7532 4.19881 20.1057 3.04652 18.9534C1.89428 17.8011 1.24672 16.2382 1.24672 14.6086V7.55591C1.24676 5.92638 1.89427 4.36344 3.04652 3.21118C4.1988 2.05901 5.76176 1.41138 7.39125 1.41138H14.444C15.1092 1.41138 15.7629 1.52075 16.3825 1.72681C16.3957 1.71761 16.4091 1.70844 16.4225 1.69946C16.8823 1.39226 17.4233 1.22876 17.9762 1.22876Z" fill="#8E9198"/>
<path fill-rule="evenodd" clip-rule="evenodd" d="M12.6768 1.38379C12.8654 1.38389 13.0462 1.45853 13.1797 1.5918C13.3132 1.72535 13.3886 1.90683 13.3887 2.0957C13.3887 2.28463 13.3133 2.46602 13.1797 2.59961C13.0462 2.73297 12.8654 2.8085 12.6768 2.80859H6.60742C5.54075 2.82093 4.52094 3.24966 3.7666 4.00391C3.01227 4.75824 2.58268 5.77801 2.57031 6.84473V15.3926C2.58265 16.4593 3.01231 17.479 3.7666 18.2334C4.52096 18.9878 5.54067 19.4174 6.60742 19.4297H15.1553C16.222 19.4174 17.2417 18.9878 17.9961 18.2334C18.7503 17.4791 19.18 16.4592 19.1924 15.3926V9.69434C19.1924 9.50545 19.2668 9.32401 19.4004 9.19043C19.534 9.05685 19.7154 8.98146 19.9043 8.98145C20.0932 8.98145 20.2746 9.05684 20.4082 9.19043C20.5418 9.32402 20.6172 9.50541 20.6172 9.69434V15.3926C20.6048 16.8371 20.0253 18.2197 19.0039 19.2412C17.9824 20.2627 16.5999 20.8421 15.1553 20.8545H6.60742C5.16282 20.8421 3.78031 20.2627 2.75879 19.2412C1.73733 18.2197 1.15791 16.8371 1.14551 15.3926V6.84473C1.15794 5.40031 1.73748 4.01854 2.75879 2.99707C3.78031 1.97555 5.16282 1.39619 6.60742 1.38379H12.6768ZM14.6807 14.918C14.8695 14.918 15.051 14.9924 15.1846 15.126C15.3181 15.2595 15.3925 15.441 15.3926 15.6299C15.3926 15.8187 15.318 16.0002 15.1846 16.1338C15.051 16.2673 14.8695 16.3427 14.6807 16.3428H6.42676C6.23783 16.3428 6.05644 16.2674 5.92285 16.1338C5.78933 16.0002 5.71484 15.8188 5.71484 15.6299C5.71491 15.441 5.78931 15.2595 5.92285 15.126C6.05643 14.9925 6.23789 14.918 6.42676 14.918H14.6807ZM10.8809 11.1182C11.0697 11.1182 11.2512 11.1937 11.3848 11.3271C11.5184 11.4607 11.5938 11.6421 11.5938 11.8311C11.5937 12.0199 11.5183 12.2014 11.3848 12.335C11.2512 12.4684 11.0697 12.543 10.8809 12.543H6.42676C6.23786 12.543 6.05644 12.4685 5.92285 12.335C5.78928 12.2014 5.71487 12.0199 5.71484 11.8311C5.71484 11.6421 5.78929 11.4607 5.92285 11.3271C6.05644 11.1936 6.23783 11.1182 6.42676 11.1182H10.8809ZM18.0049 1.14551C18.7606 1.14552 19.4852 1.44614 20.0195 1.98047C20.5539 2.51481 20.8545 3.23945 20.8545 3.99512C20.8545 4.55863 20.6871 5.10957 20.374 5.57812C20.061 6.04661 19.6162 6.41225 19.0957 6.62793C18.5751 6.84356 18.0019 6.89991 17.4492 6.79004C16.8965 6.68009 16.3887 6.40826 15.9902 6.00977C15.5918 5.61128 15.3199 5.10349 15.21 4.55078C15.1001 3.99834 15.1566 3.42569 15.3721 2.90527C15.5877 2.38461 15.9533 1.93907 16.4219 1.62598C16.8904 1.31292 17.4414 1.14551 18.0049 1.14551ZM18.0049 2.57031C17.627 2.57031 17.2643 2.7211 16.9971 2.98828C16.7302 3.2554 16.5801 3.6175 16.5801 3.99512C16.5801 4.2769 16.6638 4.55282 16.8203 4.78711C16.9769 5.02127 17.1997 5.20373 17.46 5.31152C17.7202 5.41925 18.0069 5.44753 18.2832 5.39258C18.5594 5.33755 18.8135 5.20208 19.0127 5.00293C19.2118 4.80375 19.3474 4.54968 19.4023 4.27344C19.4573 3.99715 19.429 3.71047 19.3213 3.4502C19.2135 3.18987 19.0302 2.96709 18.7959 2.81055C18.5617 2.65416 18.2865 2.57032 18.0049 2.57031Z" fill="#8E9198"/>
</svg>
