<svg width="14" height="14" viewBox="0 0 14 14" fill="none" xmlns="http://www.w3.org/2000/svg">
<g clip-path="url(#clip0_3_3049)">
<path opacity="0.3" d="M12.8872 4.71707L11.5395 6.07102L7.92898 2.4605L9.28293 1.11282C9.39987 0.991491 9.54008 0.894982 9.69517 0.829064C9.85026 0.763146 10.017 0.729172 10.1856 0.729172C10.3541 0.729172 10.5209 0.763146 10.6759 0.829064C10.831 0.894982 10.9712 0.991491 11.0882 1.11282L12.8872 2.91181C13.0085 3.02876 13.105 3.16897 13.1709 3.32405C13.2369 3.47914 13.2708 3.64593 13.2708 3.81444C13.2708 3.98296 13.2369 4.14975 13.1709 4.30483C13.105 4.45992 13.0085 4.60013 12.8872 4.71707ZM1.78608 13.2294L5.67241 11.9381L2.06189 8.32759L0.770625 12.2139C0.723297 12.3554 0.716336 12.5072 0.750524 12.6524C0.784711 12.7976 0.858693 12.9304 0.964163 13.0358C1.06963 13.1413 1.20242 13.2153 1.3476 13.2495C1.49279 13.2837 1.64463 13.2767 1.78608 13.2294Z" fill="#676A72"/>
<path d="M2.96452 12.8346L1.78608 13.2295C1.64463 13.2768 1.49279 13.2838 1.3476 13.2496C1.20242 13.2154 1.06963 13.1414 0.964163 13.0359C0.858693 12.9305 0.784711 12.7977 0.750524 12.6525C0.716336 12.5073 0.723297 12.3555 0.770625 12.214L1.16553 11.0356L2.96452 12.8346ZM2.06189 8.32768L5.67241 11.9382L11.5395 6.07111L7.92898 2.46059L2.06189 8.32768Z" fill="#676A72"/>
</g>
<defs>
<clipPath id="clip0_3_3049">
<rect width="14" height="14" fill="white"/>
</clipPath>
</defs>
</svg>
