<svg width="22" height="22" viewBox="0 0 22 22" fill="none" xmlns="http://www.w3.org/2000/svg">
<path fill-rule="evenodd" clip-rule="evenodd" d="M10.1735 15.8888C12.5428 15.8888 14.4636 17.1029 14.4636 18.6007C14.4634 20.0986 12.5427 21.3127 10.1735 21.3127C7.80434 21.3126 5.8836 20.0985 5.88348 18.6007C5.88348 17.1029 7.80427 15.8888 10.1735 15.8888ZM10.1735 7.75113C12.0814 7.75117 13.6276 9.29828 13.6276 11.2062C13.6276 13.1141 12.0814 14.6612 10.1735 14.6613C8.26558 14.6613 6.71846 13.1141 6.71844 11.2062C6.71844 9.29826 8.26557 7.75113 10.1735 7.75113Z" fill="#8E9198"/>
<path opacity="0.3" fill-rule="evenodd" clip-rule="evenodd" d="M15.4739 8.7627C18.0933 8.7627 20.2181 10.0313 20.2181 11.5781C20.2178 13.1248 18.1037 14.3934 15.4847 14.3936C15.0137 14.389 14.5434 14.3405 14.0814 14.249C14.6913 13.4913 15.0587 12.5665 15.1341 11.5967C15.2095 10.627 14.9896 9.65735 14.5042 8.81445C14.8239 8.76289 15.144 8.7627 15.4739 8.7627ZM4.67707 0.6875C6.28317 0.6875 7.58527 1.98961 7.58527 3.5957C7.58522 5.20175 6.28313 6.50391 4.67707 6.50391C3.0711 6.5038 1.76893 5.20169 1.76887 3.5957C1.76887 1.98967 3.07106 0.687603 4.67707 0.6875ZM15.639 0.6875C17.2451 0.6875 18.5472 1.98961 18.5472 3.5957C18.5471 5.20175 17.245 6.50391 15.639 6.50391C14.033 6.50383 12.7308 5.2017 12.7308 3.5957C12.7308 1.98965 14.033 0.687576 15.639 0.6875Z" fill="#8E9198"/>
</svg>
