<svg width="16" height="16" viewBox="0 0 16 16" fill="none" xmlns="http://www.w3.org/2000/svg">
<g clip-path="url(#clip0_3_3024)">
<path opacity="0.3" d="M13.8725 0.682559L11.2793 1.15139C9.96593 1.5022 8.77147 2.20065 7.82168 3.17321C6.30531 4.7555 4.61314 8.14718 3.9392 9.56099C3.85284 9.74776 3.8269 9.95681 3.86497 10.159C3.90305 10.3612 4.00326 10.5465 4.15163 10.6891L5.66067 12.1542C5.80741 12.2971 5.99572 12.3896 6.19847 12.4186C6.40121 12.4476 6.60792 12.4114 6.78879 12.3153C8.97618 11.2097 11.0287 9.85528 12.9055 8.27904C13.8957 7.27645 14.564 6.00108 14.8248 4.61632L15.2936 2.14765C15.3315 1.95094 15.3214 1.74798 15.2642 1.55601C15.2069 1.36404 15.1042 1.18872 14.9647 1.04493C14.8252 0.90113 14.6531 0.793107 14.4629 0.730024C14.2728 0.66694 14.0703 0.650658 13.8725 0.682559ZM12.1437 5.94955C11.944 6.16059 11.686 6.30749 11.4027 6.37158C11.1193 6.43567 10.8232 6.41404 10.5521 6.30946C10.2811 6.20488 10.0472 6.02206 9.88029 5.78424C9.71338 5.54642 9.62095 5.26434 9.61474 4.97385C9.60854 4.68337 9.68885 4.3976 9.84546 4.15287C10.0021 3.90815 10.2279 3.71551 10.4943 3.59945C10.7606 3.48339 11.0555 3.44915 11.3414 3.50108C11.6272 3.55301 11.8912 3.68877 12.0997 3.8911C12.3763 4.15947 12.536 4.52601 12.5443 4.9113C12.5525 5.2966 12.4086 5.66962 12.1437 5.94955Z" fill="black"/>
<path d="M6.07819 5.56131L4.04172 9.37787L0.686668 9.29729C0.686668 9.29729 3.49231 5.01191 6.07819 5.56131ZM11.0009 9.76611L7.33816 12.0077L7.56525 15.3334C7.56525 15.3334 11.6748 12.3154 11.0009 9.76611ZM11.0741 3.48822C10.7844 3.48822 10.5011 3.57414 10.2602 3.73513C10.0192 3.89611 9.83146 4.12493 9.72057 4.39264C9.60968 4.66035 9.58067 4.95493 9.6372 5.23913C9.69373 5.52333 9.83327 5.78438 10.0382 5.98928C10.2431 6.19417 10.5041 6.33371 10.7883 6.39024C11.0725 6.44677 11.3671 6.41776 11.6348 6.30687C11.9025 6.19598 12.1313 6.00819 12.2923 5.76726C12.4533 5.52633 12.5392 5.24307 12.5392 4.9533C12.5392 4.56474 12.3849 4.19209 12.1101 3.91733C11.8354 3.64257 11.4627 3.48822 11.0741 3.48822Z" fill="black"/>
</g>
<defs>
<clipPath id="clip0_3_3024">
<rect width="16" height="16" fill="white"/>
</clipPath>
</defs>
</svg>
