<svg width="14" height="14" viewBox="0 0 14 14" fill="none" xmlns="http://www.w3.org/2000/svg">
<g clip-path="url(#clip0_6_955)">
<path d="M10.7428 0.781786H6.7628C6.14121 0.778421 5.54057 1.0063 5.07763 1.42112C4.61469 1.83595 4.32254 2.40808 4.25794 3.02632H3.25716C2.59381 3.02015 1.95511 3.27737 1.48118 3.74154C1.00725 4.20571 0.736796 4.83892 0.729164 5.50225V11.964C0.729809 12.1831 0.787821 12.3983 0.897429 12.5881C1.00704 12.7779 1.16442 12.9357 1.35393 13.0457C1.55042 13.1578 1.77273 13.2168 1.99895 13.2168C2.22516 13.2168 2.44747 13.1578 2.64396 13.0457L5.0389 11.6979C5.10202 11.6607 5.17393 11.6411 5.24716 11.6411C5.32039 11.6411 5.39229 11.6607 5.45541 11.6979L7.85036 13.0457C8.04498 13.1543 8.26385 13.212 8.48669 13.2135C8.71734 13.2122 8.94329 13.1482 9.14039 13.0284C9.33063 12.9206 9.48876 12.7641 9.59856 12.575C9.70835 12.386 9.76585 12.1711 9.76515 11.9524V9.89298L11.356 10.7839C11.5519 10.8976 11.7744 10.9576 12.001 10.9576C12.2276 10.9576 12.4501 10.8976 12.646 10.7839C12.8371 10.6756 12.9958 10.5182 13.1057 10.328C13.2155 10.1378 13.2725 9.92171 13.2708 9.70208V3.25772C13.2632 2.59439 12.9927 1.96117 12.5188 1.497C12.0448 1.03283 11.4061 0.775614 10.7428 0.781786ZM8.89742 9.16987V11.964C8.89668 12.0314 8.87809 12.0974 8.84354 12.1554C8.80899 12.2133 8.75972 12.261 8.70073 12.2937C8.63694 12.3319 8.56396 12.3521 8.48959 12.3521C8.41521 12.3521 8.34223 12.3319 8.27844 12.2937L5.8835 10.9458C5.68981 10.8379 5.47177 10.7813 5.25005 10.7813C5.02834 10.7813 4.81029 10.8379 4.61661 10.9458L2.21588 12.2995C2.15168 12.3366 2.07886 12.3561 2.00473 12.3561C1.9306 12.3561 1.85778 12.3366 1.79358 12.2995C1.7346 12.2668 1.68532 12.2191 1.65078 12.1611C1.61623 12.1032 1.59764 12.0372 1.5969 11.9698V5.50225C1.60451 5.06906 1.78353 4.65654 2.09473 4.3551C2.40593 4.05365 2.82394 3.88786 3.25716 3.89405H7.23716C7.67038 3.88786 8.08838 4.05365 8.39959 4.3551C8.71079 4.65654 8.88981 5.06906 8.89742 5.50225V9.16987ZM12.4031 9.71365C12.4022 9.78182 12.3836 9.8486 12.3491 9.90742C12.3146 9.96624 12.2654 10.0151 12.2064 10.0492C12.1426 10.0874 12.0696 10.1076 11.9952 10.1076C11.9209 10.1076 11.8479 10.0874 11.7841 10.0492L9.76515 8.92112V5.50225C9.75752 4.83892 9.48707 4.20571 9.01314 3.74154C8.53921 3.27737 7.9005 3.02015 7.23716 3.02632H5.11989C5.18357 2.63816 5.3844 2.28573 5.68588 2.03308C5.98736 1.78043 6.36948 1.64433 6.7628 1.64952H10.7428C11.176 1.64333 11.594 1.80912 11.9052 2.11056C12.2164 2.41201 12.3954 2.82452 12.4031 3.25772V9.71365Z" fill="#676A72"/>
</g>
<defs>
<clipPath id="clip0_6_955">
<rect width="14" height="14" fill="white"/>
</clipPath>
</defs>
</svg>
