<svg width="22" height="22" viewBox="0 0 22 22" fill="none" xmlns="http://www.w3.org/2000/svg">
<path opacity="0.1" fill-rule="evenodd" clip-rule="evenodd" d="M14.3457 1.54172C14.6661 1.5834 14.9748 1.68972 15.2529 1.85422L16.7724 2.7302C17.3283 3.05185 17.7333 3.58144 17.8994 4.20188C18.0654 4.82231 17.9792 5.48348 17.6582 6.03977L17.2568 6.74778C17.4666 7.04383 17.6539 7.35591 17.8164 7.68039H18.6552C19.2972 7.68778 19.9108 7.9485 20.3613 8.40598C20.8116 8.86343 21.063 9.48089 21.0605 10.1228V11.9216C21.0531 12.5603 20.7942 13.1709 20.3408 13.6208C19.8874 14.0705 19.2753 14.3235 18.6367 14.3259H17.8066C17.6538 14.6282 17.4826 14.9216 17.2939 15.2029L17.7138 15.9392C17.8693 16.2169 17.9684 16.5225 18.0058 16.8386C18.0432 17.1548 18.0181 17.4756 17.9316 17.782C17.8451 18.0883 17.6991 18.3749 17.5019 18.6247C17.3046 18.8747 17.0592 19.0836 16.7812 19.239L15.2529 20.115C14.9753 20.2718 14.669 20.3719 14.3525 20.4099C14.0361 20.4478 13.7149 20.4233 13.4082 20.3366C13.1015 20.25 12.8151 20.1029 12.5654 19.905C12.3157 19.7071 12.1075 19.462 11.9531 19.1833L11.5429 18.4841C11.1956 18.512 10.8463 18.512 10.499 18.4841L10.0703 19.2107C9.85977 19.5867 9.55241 19.9 9.18062 20.1179C8.80871 20.3358 8.38511 20.4511 7.95406 20.4509C7.52894 20.4474 7.11155 20.3352 6.74215 20.1247L5.22262 19.239C4.94616 19.0808 4.70436 18.8688 4.5107 18.6159C4.31708 18.3631 4.17535 18.0744 4.09469 17.7663C4.0094 17.455 3.98667 17.1294 4.02828 16.8093C4.06989 16.4894 4.17498 16.1811 4.33687 15.9021L4.74703 15.2029C4.54584 14.9048 4.36582 14.5929 4.20699 14.2702H3.36812C3.05004 14.269 2.7348 14.2055 2.44137 14.0827C2.14779 13.9598 1.8804 13.7803 1.65621 13.5544C1.43202 13.3285 1.25539 13.0599 1.13473 12.7654C1.01411 12.4709 0.951875 12.1558 0.953085 11.8376V10.0573C0.955786 9.74632 1.02 9.43837 1.14156 9.15207C1.26312 8.86584 1.44022 8.60632 1.66207 8.3884C1.88573 8.16472 2.15162 7.98789 2.4443 7.86789C2.73716 7.74787 3.05163 7.68677 3.36812 7.68918H4.18844C4.34838 7.36543 4.5322 7.05409 4.73824 6.75754L4.32809 6.02121C4.16997 5.74398 4.06794 5.43762 4.02926 5.12082C3.99058 4.80403 4.01574 4.48264 4.1025 4.17551C4.18926 3.86838 4.3364 3.58149 4.53512 3.33176C4.73382 3.08207 4.97997 2.87394 5.25973 2.72043L6.78902 1.84446C7.06673 1.68898 7.37237 1.58983 7.68844 1.55246C8.00466 1.5151 8.32536 1.54013 8.6318 1.62668C8.93825 1.71325 9.22461 1.86004 9.47457 2.05735C9.72445 2.25463 9.9335 2.49916 10.0888 2.77707L10.4892 3.47629C10.8183 3.45765 11.1484 3.45765 11.4775 3.47629L11.916 2.73996C12.0754 2.46445 12.2873 2.22256 12.54 2.02903C12.7927 1.83554 13.0811 1.6941 13.3886 1.61203C13.6996 1.5241 14.0252 1.50006 14.3457 1.54172ZM12.4033 7.61203C11.7334 7.33458 10.9962 7.26265 10.2851 7.40403C9.5739 7.5455 8.91996 7.89422 8.40719 8.40696C7.89439 8.91975 7.54574 9.57362 7.40426 10.2849C7.26283 10.9961 7.33481 11.7331 7.61226 12.403C7.88977 13.073 8.35992 13.6457 8.96285 14.0486C9.56582 14.4514 10.2748 14.6667 11 14.6667C11.9724 14.6667 12.9051 14.2801 13.5927 13.5925C14.2803 12.9049 14.667 11.9721 14.667 10.9997C14.6669 10.2746 14.4516 9.56553 14.0488 8.96262C13.6459 8.35971 13.0732 7.88953 12.4033 7.61203Z" fill="#8E9198"/>
<path d="M7.93808 20.498C7.51164 20.4945 7.09319 20.3818 6.72266 20.1707L5.19871 19.2825C4.9214 19.1239 4.67853 18.9115 4.48428 18.6579C4.29003 18.4042 4.14832 18.1144 4.06743 17.8053C3.98189 17.4931 3.95933 17.167 4.00106 16.846C4.04279 16.5249 4.14799 16.2154 4.31051 15.9355L4.72189 15.2342C4.5201 14.9353 4.33893 14.6229 4.17962 14.2993H3.33818C3.01895 14.2981 2.7031 14.234 2.40864 14.1107C2.11419 13.9874 1.8469 13.8073 1.62205 13.5807C1.39719 13.3541 1.21917 13.0855 1.09814 12.7901C0.977114 12.4947 0.915456 12.1783 0.916686 11.8591V10.0734C0.919395 9.76144 0.983541 9.45307 1.10546 9.16592C1.22738 8.87877 1.40468 8.61845 1.62724 8.39985C1.85167 8.17535 2.11853 7.99773 2.41226 7.87735C2.70599 7.75697 3.02074 7.69622 3.33818 7.69864H4.16092C4.3214 7.37377 4.50578 7.06127 4.71254 6.7637L4.30116 6.0251C4.14258 5.74704 4.04093 5.4402 4.00214 5.12245C3.96334 4.80471 3.98818 4.48242 4.0752 4.17437C4.16222 3.86633 4.30968 3.57868 4.50899 3.3282C4.7083 3.07771 4.95547 2.86941 5.2361 2.71542L6.7694 1.83658C7.04808 1.68051 7.35477 1.58089 7.67197 1.54342C7.98916 1.50594 8.31062 1.53134 8.61799 1.61817C8.92536 1.705 9.21261 1.85155 9.46331 2.04945C9.71401 2.24734 9.92326 2.49271 10.0791 2.77152L10.4811 3.47272C10.8112 3.45402 11.1421 3.45402 11.4721 3.47272L11.9116 2.73412C12.0714 2.45779 12.2842 2.21566 12.5376 2.02155C12.7911 1.82745 13.0803 1.68517 13.3888 1.60284C13.7007 1.51464 14.0272 1.4907 14.3487 1.53248C14.6701 1.57427 14.9797 1.68091 15.2586 1.84593L16.7826 2.72477C17.3402 3.04737 17.747 3.57814 17.9135 4.20048C18.0801 4.82281 17.9928 5.4858 17.6708 6.0438L17.2688 6.75435C17.4792 7.05129 17.6668 7.36384 17.8297 7.68929H18.6712C19.3151 7.69669 19.93 7.95833 20.3818 8.41717C20.8337 8.87602 21.0858 9.49487 21.0833 10.1388V11.9433C21.076 12.584 20.8169 13.196 20.3621 13.6474C19.9073 14.0987 19.2932 14.353 18.6525 14.3554H17.8204C17.6671 14.6586 17.4954 14.9521 17.3062 15.2342L17.7269 15.9728C17.883 16.2515 17.9826 16.5582 18.02 16.8754C18.0575 17.1926 18.0321 17.5141 17.9453 17.8214C17.8585 18.1288 17.7119 18.4161 17.514 18.6668C17.3161 18.9175 17.0708 19.1267 16.7919 19.2825L15.2586 20.1614C14.9803 20.3187 14.6735 20.4193 14.356 20.4575C14.0386 20.4956 13.7167 20.4705 13.409 20.3835C13.1013 20.2966 12.8138 20.1496 12.5633 19.951C12.3127 19.7524 12.1039 19.5062 11.949 19.2264L11.5376 18.5252C11.1891 18.5532 10.8389 18.5532 10.4905 18.5252L10.0604 19.2545C9.84919 19.6318 9.54118 19.9459 9.16812 20.1645C8.79506 20.3831 8.37045 20.4982 7.93808 20.498ZM3.35688 9.13845C3.0856 9.13785 2.82448 9.24162 2.62762 9.42828C2.53225 9.52419 2.45673 9.63797 2.40539 9.7631C2.35406 9.88824 2.32791 10.0223 2.32844 10.1575V11.9152C2.34486 12.1733 2.4579 12.4157 2.64502 12.5941C2.83215 12.7726 3.07963 12.874 3.33818 12.8782H4.62839C4.76686 12.876 4.90272 12.9159 5.01795 12.9927C5.13317 13.0696 5.2223 13.1796 5.2735 13.3083C5.49144 13.8221 5.77421 14.306 6.11495 14.7481C6.19847 14.8599 6.24815 14.9933 6.25809 15.1325C6.26803 15.2717 6.23782 15.4109 6.17104 15.5334L5.52593 16.6273C5.39475 16.8671 5.35807 17.1472 5.42309 17.4127C5.49393 17.6734 5.66545 17.8954 5.89991 18.0297L7.42386 18.9179C7.54087 18.9876 7.67088 19.0327 7.80592 19.0504C7.94097 19.068 8.0782 19.058 8.20921 19.0208C8.47121 18.9476 8.69531 18.777 8.83562 18.5439L9.48072 17.422C9.55185 17.3029 9.65587 17.2069 9.78027 17.1455C9.90467 17.0842 10.0441 17.0601 10.1819 17.0761C10.7222 17.1416 11.2684 17.1416 11.8087 17.0761C11.946 17.0541 12.0867 17.0746 12.212 17.1347C12.3373 17.1949 12.4412 17.2918 12.5099 17.4127L13.1457 18.5159C13.2809 18.7526 13.5046 18.926 13.7675 18.9978C14.0305 19.0697 14.3113 19.0342 14.5481 18.8992L16.072 18.0204C16.1905 17.9556 16.2947 17.8676 16.3782 17.7616C16.4618 17.6555 16.523 17.5336 16.5582 17.4033C16.6232 17.1379 16.5866 16.8577 16.4554 16.618L15.8103 15.496C15.735 15.3806 15.695 15.2458 15.695 15.108C15.695 14.9703 15.735 14.8355 15.8103 14.72C16.1392 14.2953 16.4125 13.8303 16.6237 13.3363C16.6697 13.2035 16.7573 13.0891 16.8735 13.0099C16.9897 12.9308 17.1283 12.8911 17.2688 12.8969H18.5403C18.8089 12.9076 19.0714 12.8145 19.2732 12.637C19.4751 12.4594 19.601 12.2111 19.6248 11.9433V10.1669C19.6253 10.0316 19.5992 9.89759 19.5479 9.77245C19.4965 9.64732 19.421 9.53354 19.3256 9.43763C19.2326 9.34042 19.1208 9.263 18.9971 9.20998C18.8734 9.15697 18.7403 9.12946 18.6057 9.1291H17.3249C17.1862 9.12681 17.0512 9.08398 16.9366 9.0059C16.8219 8.92782 16.7327 8.81789 16.6798 8.68968C16.4616 8.17974 16.1754 7.70169 15.829 7.26857C15.7447 7.15682 15.6953 7.02267 15.687 6.88296C15.6787 6.74324 15.7118 6.60418 15.7822 6.48322L16.418 5.37999C16.553 5.14317 16.5885 4.86242 16.5166 4.59945C16.4447 4.33647 16.2714 4.1128 16.0346 3.97759L14.5107 3.06135C14.2902 2.93373 14.0287 2.89685 13.7814 2.9585C13.5186 3.02991 13.2939 3.20095 13.155 3.43532L12.5099 4.55725C12.4406 4.67802 12.3369 4.77541 12.212 4.83702C12.0871 4.89863 11.9467 4.92166 11.8087 4.90318C11.2841 4.83776 10.7533 4.83776 10.2287 4.90318C10.092 4.92098 9.95315 4.89756 9.82989 4.83593C9.70662 4.7743 9.60457 4.67726 9.53682 4.55725L8.86367 3.44467C8.72671 3.20981 8.50306 3.03808 8.2408 2.9664C7.97855 2.89471 7.69864 2.92881 7.46126 3.06135L5.92796 3.92149C5.6915 4.05689 5.51779 4.27986 5.44432 4.54225C5.37085 4.80464 5.40352 5.08539 5.53528 5.3239L6.17104 6.45517C6.24903 6.57922 6.28562 6.72483 6.27554 6.87101C6.26546 7.01719 6.20923 7.1564 6.11495 7.26857C5.77693 7.69902 5.49424 8.17016 5.2735 8.67098C5.22122 8.79889 5.13183 8.90822 5.01685 8.98487C4.90187 9.06152 4.76658 9.10199 4.62839 9.10105H3.35688V9.13845ZM10.9766 14.7481C10.237 14.7481 9.51393 14.5287 8.89893 14.1178C8.28393 13.7069 7.8046 13.1228 7.52154 12.4395C7.23849 11.7561 7.16443 11.0042 7.30873 10.2787C7.45303 9.55329 7.80921 8.88693 8.33222 8.36392C8.85524 7.8409 9.5216 7.48473 10.247 7.34043C10.9725 7.19613 11.7244 7.27019 12.4078 7.55324C13.0911 7.8363 13.6752 8.31563 14.0861 8.93063C14.497 9.54563 14.7164 10.2687 14.7164 11.0083C14.7164 12.0002 14.3224 12.9514 13.621 13.6527C12.9197 14.3541 11.9685 14.7481 10.9766 14.7481ZM10.9766 8.67098C10.5143 8.67098 10.0624 8.80806 9.67807 9.06489C9.29369 9.32172 8.99411 9.68677 8.8172 10.1139C8.64029 10.541 8.594 11.0109 8.68419 11.4643C8.77438 11.9177 8.99699 12.3342 9.32387 12.6611C9.65076 12.988 10.0672 13.2106 10.5206 13.3008C10.974 13.3909 11.444 13.3447 11.8711 13.1678C12.2982 12.9908 12.6632 12.6913 12.9201 12.3069C13.1769 11.9225 13.314 11.4706 13.314 11.0083C13.314 10.3884 13.0677 9.79391 12.6294 9.35557C12.191 8.91723 11.5965 8.67098 10.9766 8.67098Z" fill="#8E9198"/>
</svg>
