<svg width="22" height="22" viewBox="0 0 22 22" fill="none" xmlns="http://www.w3.org/2000/svg">
<path d="M20.3197 9.44794C20.3197 9.3561 20.3748 9.27345 20.3932 9.18161C20.4368 9.03143 20.4675 8.87782 20.485 8.72242V8.5112C20.508 8.27911 20.508 8.04532 20.485 7.81323L20.136 5.05811C20.043 4.24896 19.7248 3.48214 19.2177 2.84482C18.8 2.31644 18.2684 1.88922 17.6625 1.59503C17.0567 1.30084 16.3922 1.14729 15.7186 1.14583H6.29612C5.19593 1.14959 4.13523 1.55626 3.31453 2.28897C2.49382 3.02168 1.96997 4.02967 1.842 5.12239L1.52056 8.02446C1.49759 8.24734 1.49759 8.47199 1.52056 8.69487V8.89692C1.53702 9.04044 1.56779 9.18196 1.6124 9.31937C1.63141 9.40957 1.65595 9.49851 1.68587 9.5857C1.68587 9.68672 1.76852 9.77856 1.81444 9.87958C1.86036 9.9806 1.88791 10.0724 1.94302 10.1643V15.8031C1.94544 17.142 2.47839 18.4253 3.42512 19.3721C4.37185 20.3188 5.6552 20.8517 6.99408 20.8542H14.9748C15.6381 20.8542 16.2949 20.7235 16.9077 20.4697C17.5205 20.2158 18.0774 19.8438 18.5464 19.3747C19.0154 18.9057 19.3875 18.3489 19.6413 17.7361C19.8952 17.1232 20.0258 16.4664 20.0258 15.8031V10.0633C20.0749 9.97573 20.1149 9.88341 20.1452 9.78774C20.2116 9.67891 20.27 9.56533 20.3197 9.44794ZM15.7278 2.45911C16.1956 2.46022 16.6572 2.56644 17.0785 2.76991C17.4997 2.97338 17.8698 3.26889 18.1615 3.63463C18.5178 4.07846 18.7436 4.61267 18.8136 5.1775L19.1626 7.93262C19.1764 8.0823 19.1764 8.23294 19.1626 8.38263V8.54793C19.1669 8.63053 19.1669 8.7133 19.1626 8.79589C19.1626 8.86936 19.1166 8.95202 19.0799 9.03467C19.0687 9.07592 19.0533 9.11592 19.034 9.15406C18.9909 9.25654 18.9387 9.35491 18.8779 9.44794C18.8044 9.54896 18.7401 9.64998 18.6666 9.74182C18.4479 9.98901 18.1793 10.1872 17.8786 10.3233C17.5779 10.4594 17.2518 10.5304 16.9217 10.5316C16.3402 10.5486 15.7737 10.3451 15.3359 9.96185C14.8982 9.5786 14.6215 9.04399 14.5615 8.46528L14.2768 5.18668L14.0472 2.43155L15.7278 2.45911ZM12.7247 2.45911V2.71625L13.1931 8.2265C13.22 8.52586 13.184 8.82754 13.0876 9.1122C12.9911 9.39686 12.8362 9.65824 12.6329 9.87958C12.4258 10.0926 12.1781 10.2619 11.9044 10.3775C11.6307 10.4931 11.3366 10.5527 11.0395 10.5527C10.7424 10.5527 10.4483 10.4931 10.1747 10.3775C9.90098 10.2619 9.65326 10.0926 9.44614 9.87958C9.2419 9.66344 9.08432 9.40759 8.9832 9.12794C8.88209 8.8483 8.8396 8.55083 8.85838 8.25405L9.05124 4.43361L9.17981 2.45911H12.7247ZM3.18282 5.26933C3.26429 4.49961 3.62712 3.78708 4.20169 3.26844C4.77626 2.74981 5.5221 2.46159 6.29612 2.45911H7.85735L7.47164 8.54793C7.43666 9.0994 7.19325 9.61693 6.79076 9.99554C6.38827 10.3742 5.85685 10.5855 5.30427 10.5867H5.01957C4.71435 10.5859 4.41271 10.5209 4.13424 10.3959C3.85578 10.2709 3.60672 10.0887 3.40323 9.86121C3.33389 9.78159 3.27238 9.69548 3.21956 9.60406C3.15873 9.51103 3.10648 9.41267 3.06343 9.31019C3.05998 9.28274 3.05998 9.25497 3.06343 9.22753C3.02771 9.14783 3.00002 9.06477 2.98078 8.97957C2.97556 8.91232 2.97556 8.84477 2.98078 8.77753C2.97635 8.71945 2.97635 8.66112 2.98078 8.60304C2.96703 8.46562 2.96703 8.32718 2.98078 8.18977L3.18282 5.26933ZM9.2441 19.5042V17.6674C9.2441 17.1803 9.43761 16.7131 9.78207 16.3686C10.1265 16.0242 10.5937 15.8307 11.0809 15.8307C11.568 15.8307 12.0352 16.0242 12.3796 16.3686C12.7241 16.7131 12.9176 17.1803 12.9176 17.6674V19.5042H9.2441ZM15.0023 19.5042H14.2676V17.6674C14.2676 16.8222 13.9319 16.0117 13.3342 15.414C12.7366 14.8164 11.926 14.4806 11.0809 14.4806C10.2357 14.4806 9.4251 14.8164 8.82747 15.414C8.22984 16.0117 7.89409 16.8222 7.89409 17.6674V19.5042H6.97571C6.00144 19.5042 5.06707 19.1171 4.37816 18.4282C3.68924 17.7393 3.30221 16.8049 3.30221 15.8307V11.4684C3.82033 11.7633 4.40506 11.9213 5.00121 11.9276H5.2859C5.84276 11.9248 6.39104 11.7902 6.88588 11.5348C7.38072 11.2794 7.80804 10.9105 8.13287 10.4582C8.21365 10.5857 8.30587 10.7055 8.40838 10.8163C8.73839 11.1706 9.13783 11.4532 9.58181 11.6464C10.0258 11.8396 10.5048 11.9394 10.989 11.9394C11.4732 11.9394 11.9522 11.8396 12.3962 11.6464C12.8402 11.4532 13.2396 11.1706 13.5696 10.8163C13.6725 10.697 13.7676 10.5713 13.8543 10.4398C14.3847 11.1828 15.1763 11.698 16.0704 11.8819C16.9646 12.0658 17.8952 11.905 18.6758 11.4316V15.8307C18.6758 16.3131 18.5808 16.7907 18.3962 17.2364C18.2116 17.6821 17.941 18.0871 17.5999 18.4282C17.2588 18.7693 16.8538 19.0399 16.4081 19.2245C15.9624 19.4091 15.4847 19.5042 15.0023 19.5042Z" fill="#8E9198"/>
</svg>
