<svg width="14" height="14" viewBox="0 0 14 14" fill="none" xmlns="http://www.w3.org/2000/svg">
<path opacity="0.1" d="M10.7307 0.699974H3.32002C2.8572 0.699974 2.41333 0.883829 2.08607 1.21109C1.75881 1.53836 1.57495 1.98222 1.57495 2.44504V3.87018C1.57836 4.32312 1.75775 4.75699 2.0752 5.08009L4.26235 7.29632C4.59606 7.63377 4.78225 8.08983 4.78006 8.56441V11.6183C4.7793 11.9163 4.86093 12.2088 5.01593 12.4633C5.17093 12.7179 5.39328 12.9247 5.65841 13.0609C5.92347 13.1971 6.22074 13.2583 6.51807 13.2378C6.81539 13.2173 7.10145 13.1159 7.3453 12.9445L8.1364 12.3628C8.33943 12.2195 8.5051 12.0295 8.61947 11.8088C8.73385 11.5882 8.7936 11.3433 8.79371 11.0948V8.65166C8.79121 8.39859 8.84167 8.1478 8.94185 7.91539C9.04203 7.68298 9.1897 7.47409 9.3754 7.30214L11.8359 5.10917C12.0178 4.94654 12.1635 4.74759 12.2637 4.52517C12.3639 4.30274 12.4163 4.06177 12.4176 3.81783V2.42177C12.4119 1.97289 12.2334 1.54349 11.9192 1.22283C11.6051 0.90216 11.1794 0.714901 10.7307 0.699974Z" fill="#8E9198"/>
<path d="M10.7307 0.729164H3.32002C2.8572 0.729164 2.41333 0.913019 2.08607 1.24028C1.75881 1.56755 1.57495 2.01141 1.57495 2.47423V3.89937C1.57836 4.35231 1.75775 4.78618 2.0752 5.10928L4.26235 7.32551C4.59606 7.66296 4.78225 8.11902 4.78006 8.5936V11.6475C4.7793 11.9455 4.86093 12.238 5.01593 12.4925C5.17093 12.7471 5.39328 12.9539 5.65841 13.09C5.92347 13.2263 6.22074 13.2875 6.51807 13.267C6.81539 13.2465 7.10145 13.145 7.3453 12.9737L8.1364 12.392C8.33943 12.2487 8.5051 12.0587 8.61947 11.838C8.73385 11.6174 8.7936 11.3725 8.79371 11.1239V8.68085C8.79121 8.42778 8.84167 8.17699 8.94185 7.94458C9.04203 7.71217 9.1897 7.50328 9.3754 7.33133L11.8359 5.13836C12.0178 4.97573 12.1635 4.77678 12.2637 4.55436C12.3639 4.33193 12.4163 4.09096 12.4176 3.84702V2.45096C12.4119 2.00208 12.2334 1.57268 11.9192 1.25202C11.6051 0.93135 11.1794 0.744091 10.7307 0.729164ZM2.46493 3.89937V2.45096C2.46493 2.33894 2.48709 2.22803 2.53013 2.12461C2.57318 2.0212 2.63625 1.92731 2.71573 1.84838C2.79521 1.76944 2.88952 1.707 2.99323 1.66467C3.09694 1.62233 3.208 1.60093 3.32002 1.6017H6.10631L3.64576 5.44084L2.71506 4.49851C2.63559 4.42031 2.57254 4.32704 2.52959 4.22416C2.48664 4.12128 2.46466 4.01085 2.46493 3.89937ZM11.58 3.84702C11.5807 3.96725 11.5562 4.08631 11.5082 4.19652C11.4601 4.30672 11.3894 4.40563 11.3008 4.48687L8.83443 6.67984C8.55257 6.93145 8.32707 7.23977 8.17269 7.58462C8.01831 7.92946 7.93855 8.30303 7.93863 8.68085V11.1356C7.93843 11.2437 7.91248 11.3502 7.86291 11.4463C7.81334 11.5424 7.74159 11.6253 7.6536 11.6882L6.85668 12.2699C6.74468 12.3437 6.61491 12.3862 6.48089 12.3929C6.34688 12.3996 6.21352 12.3702 6.09472 12.3079C5.97592 12.2455 5.87601 12.1524 5.80541 12.0383C5.73481 11.9242 5.6961 11.7932 5.69331 11.6591V8.5936C5.69405 7.89078 5.41824 7.21588 4.92548 6.71474L4.27399 6.0807L7.14753 1.6017H10.7307C10.8423 1.6017 10.9527 1.62366 11.0557 1.66634C11.1588 1.70902 11.2524 1.77158 11.3313 1.85044C11.4101 1.9293 11.4727 2.02293 11.5153 2.12596C11.558 2.229 11.58 2.33944 11.58 2.45096V3.84702Z" fill="#8E9198"/>
</svg>
