<svg width="14" height="14" viewBox="0 0 14 14" fill="none" xmlns="http://www.w3.org/2000/svg">
<path opacity="0.3" d="M10.2631 1.74481V1.86672C10.2631 2.20708 10.1279 2.53351 9.88726 2.77418C9.64659 3.01485 9.32017 3.15006 8.97981 3.15006H5.32231C4.98195 3.15006 4.65553 3.01485 4.41485 2.77418C4.17418 2.53351 4.03897 2.20708 4.03897 1.86672V1.69989C3.19751 1.81729 2.42665 2.2343 1.86793 2.87435C1.30921 3.51441 1.00014 4.33453 0.997475 5.18414V9.88114C0.997475 10.8188 1.36997 11.7181 2.03302 12.3812C2.69607 13.0442 3.59536 13.4167 4.53306 13.4167H9.46106C10.3988 13.4167 11.298 13.0442 11.9611 12.3812C12.6241 11.7181 12.9966 10.8188 12.9966 9.88114V5.18414C12.9957 4.38658 12.7252 3.61275 12.2289 2.98837C11.7327 2.36399 11.0399 1.92574 10.2631 1.74481Z" fill="#676A72"/>
<path fill-rule="evenodd" clip-rule="evenodd" d="M9.74316 8.82227C9.80873 8.82227 9.87397 8.83532 9.93457 8.86035C9.99529 8.8855 10.0512 8.92227 10.0977 8.96875C10.144 9.01513 10.1809 9.07028 10.2061 9.13086C10.2312 9.19158 10.2441 9.25752 10.2441 9.32324C10.244 9.45578 10.1913 9.583 10.0977 9.67676C10.0038 9.77062 9.87591 9.82324 9.74316 9.82324H4.0459C3.91316 9.82324 3.78527 9.77062 3.69141 9.67676C3.5977 9.583 3.54503 9.4558 3.54492 9.32324C3.54492 9.1905 3.59754 9.06261 3.69141 8.96875C3.78527 8.87489 3.91316 8.82227 4.0459 8.82227H9.74316ZM7.08105 6.5C7.21363 6.50012 7.34082 6.55273 7.43457 6.64648C7.52829 6.74031 7.58104 6.86738 7.58105 7C7.58105 7.13262 7.52827 7.25968 7.43457 7.35352C7.34082 7.44727 7.21363 7.50085 7.08105 7.50098H4.0459C3.91316 7.50098 3.78527 7.44738 3.69141 7.35352C3.59774 7.25968 3.54492 7.13259 3.54492 7C3.54494 6.8674 3.59772 6.74031 3.69141 6.64648C3.78527 6.55262 3.91316 6.5 4.0459 6.5H7.08105ZM8.97363 0.583008C9.31732 0.583084 9.5957 0.86235 9.5957 1.20605V1.85352C9.5957 2.19722 9.31732 2.47649 8.97363 2.47656H5.32227C4.97858 2.47649 4.7002 2.19722 4.7002 1.85352V1.20605C4.7002 0.862351 4.97858 0.583085 5.32227 0.583008H8.97363Z" fill="#2C2D30"/>
</svg>
