<svg width="14" height="14" viewBox="0 0 14 14" fill="none" xmlns="http://www.w3.org/2000/svg">
<g clip-path="url(#clip0_6_1034)">
<path opacity="0.3" d="M7.7712 2.23423V0.729253H6.70518C6.48338 0.725888 6.26925 0.81036 6.10949 0.964248C5.94973 1.11814 5.8573 1.32895 5.85236 1.55072V2.26558C5.46893 2.36651 5.09856 2.51172 4.74871 2.69826L4.22824 2.19661C4.06431 2.04274 3.84793 1.95709 3.62311 1.95709C3.39828 1.95709 3.1819 2.04274 3.01798 2.19661L2.25295 2.93028C2.17443 3.00576 2.11196 3.09632 2.06929 3.19653C2.02661 3.29675 2.00462 3.40454 2.00462 3.51346C2.00462 3.62238 2.02661 3.73017 2.06929 3.83039C2.11196 3.9306 2.17443 4.02116 2.25295 4.09664L2.77342 4.5983C2.58366 4.9335 2.43221 5.28899 2.32193 5.65805H1.58825C1.4779 5.65555 1.36814 5.67482 1.26523 5.71476C1.16233 5.75469 1.0683 5.81451 0.988518 5.8908C0.908738 5.96708 0.844771 6.05834 0.80027 6.15936C0.755769 6.26037 0.731607 6.36916 0.729164 6.47952V7.52046C0.731607 7.63082 0.755769 7.73961 0.80027 7.84062C0.844771 7.94164 0.908738 8.0329 0.988518 8.10918C1.0683 8.18547 1.16233 8.24529 1.26523 8.28522C1.36814 8.32516 1.4779 8.34443 1.58825 8.34193H2.32193C2.43221 8.71099 2.58366 9.06648 2.77342 9.40168L2.25295 9.90334C2.17443 9.97882 2.11196 10.0694 2.06929 10.1696C2.02661 10.2698 2.00462 10.3776 2.00462 10.4865C2.00462 10.5954 2.02661 10.7032 2.06929 10.8034C2.11196 10.9037 2.17443 10.9942 2.25295 11.0697L3.01798 11.8034C3.1819 11.9572 3.39828 12.0429 3.62311 12.0429C3.84793 12.0429 4.06431 11.9572 4.22824 11.8034L4.74871 11.3017C5.09856 11.4883 5.46893 11.6335 5.85236 11.7344V12.4493C5.8573 12.671 5.94973 12.8818 6.10949 13.0357C6.26925 13.1896 6.48338 13.2741 6.70518 13.2707H7.7712V11.8096" fill="#676A72"/>
<path fill-rule="evenodd" clip-rule="evenodd" d="M12.186 1.13672C12.7851 1.13683 13.271 1.60628 13.271 2.18457C13.2708 2.76272 12.785 3.23134 12.186 3.23145C12.0126 3.23145 11.849 3.19096 11.7036 3.12109L9.66455 4.77441C9.58207 4.8432 9.47801 4.88103 9.37061 4.88086H7.34521C6.79409 4.86908 6.26032 5.07616 5.86182 5.45703C5.4634 5.83785 5.23245 6.36113 5.21924 6.91211C5.23402 7.46195 5.46564 7.98378 5.86377 8.36328C6.2621 8.74281 6.79515 8.9493 7.34521 8.9375H9.56494C9.67542 8.93812 9.78211 8.97855 9.86572 9.05078L11.5815 10.5068C11.7542 10.3949 11.9624 10.3301 12.186 10.3301C12.7851 10.3302 13.271 10.7987 13.271 11.377C13.271 11.9552 12.7851 12.4237 12.186 12.4238C11.5869 12.4238 11.1011 11.9553 11.1011 11.377C11.1011 11.3619 11.1024 11.3469 11.103 11.332L9.38916 9.87793H7.34521C6.54571 9.88968 5.77345 9.58423 5.19873 9.02832C4.62422 8.47243 4.29365 7.7114 4.27881 6.91211C4.29207 6.11168 4.62198 5.3492 5.19678 4.79199C5.77168 4.23473 6.54464 3.92869 7.34521 3.94043H9.22607L11.1206 2.38281C11.1078 2.31861 11.1011 2.25236 11.1011 2.18457C11.1011 1.60621 11.5869 1.13672 12.186 1.13672ZM12.2671 5.83398C12.821 5.83398 13.2707 6.26571 13.271 6.79883C13.271 7.33217 12.8212 7.76465 12.2671 7.76465C11.9368 7.7646 11.6442 7.61106 11.4614 7.37402C11.4257 7.3826 11.3893 7.38867 11.3521 7.38867H8.64795C8.47642 7.68429 8.14777 7.88379 7.771 7.88379C7.21696 7.88369 6.76807 7.45125 6.76807 6.91797C6.76829 6.38487 7.2171 5.95322 7.771 5.95312C8.14782 5.95312 8.47644 6.15256 8.64795 6.44824H11.3335C11.4795 6.08875 11.8419 5.83404 12.2671 5.83398Z" fill="#676A72"/>
</g>
<defs>
<clipPath id="clip0_6_1034">
<rect width="14" height="14" fill="white"/>
</clipPath>
</defs>
</svg>
