<svg width="14" height="14" viewBox="0 0 14 14" fill="none" xmlns="http://www.w3.org/2000/svg">
<path opacity="0.3" fill-rule="evenodd" clip-rule="evenodd" d="M9.09138 11.7902C9.22713 11.7902 9.3577 11.8446 9.45369 11.9406C9.54948 12.0365 9.603 12.1664 9.6031 12.3019C9.6031 12.4376 9.54963 12.5682 9.45369 12.6642C9.3577 12.7602 9.22713 12.8146 9.09138 12.8146H4.85408C4.71835 12.8146 4.58776 12.7602 4.49178 12.6642C4.39579 12.5682 4.34138 12.4377 4.34138 12.3019C4.34149 12.1663 4.39591 12.0365 4.49178 11.9406C4.58776 11.8446 4.71833 11.7902 4.85408 11.7902H9.09138ZM12.6129 8.37808C12.7486 8.37808 12.8792 8.43248 12.9752 8.52847C13.0709 8.6244 13.1246 8.75426 13.1246 8.8898C13.1246 9.02555 13.0712 9.15612 12.9752 9.25211C12.8792 9.34809 12.7486 9.40152 12.6129 9.40152H4.8531C4.71761 9.4014 4.58764 9.34787 4.49178 9.25211C4.39579 9.15612 4.34138 9.02555 4.34138 8.8898C4.34142 8.75418 4.39592 8.62441 4.49178 8.52847C4.58766 8.43259 4.71752 8.3782 4.8531 8.37808H12.6129Z" fill="#2C2D30"/>
<path fill-rule="evenodd" clip-rule="evenodd" d="M1.76172 8.00242C2.2517 8.00242 2.64941 8.40013 2.64941 8.89011C2.64937 9.38005 2.25167 9.77683 1.76172 9.77683C1.27198 9.77658 0.875045 9.3799 0.875 8.89011C0.875 8.40029 1.27195 8.00267 1.76172 8.00242ZM9.0918 4.96629C9.22736 4.96634 9.35721 5.0199 9.45312 5.1157C9.54911 5.21169 9.60352 5.34226 9.60352 5.478C9.60343 5.61364 9.54904 5.74342 9.45312 5.83933C9.35719 5.93524 9.22744 5.98967 9.0918 5.98972H4.85352C4.71778 5.98971 4.58719 5.93531 4.49121 5.83933C4.39552 5.74345 4.34188 5.61347 4.3418 5.478C4.3418 5.34234 4.39534 5.21167 4.49121 5.1157C4.58719 5.01972 4.71778 4.9663 4.85352 4.96629H9.0918ZM1.76172 1.1782C2.2517 1.1782 2.64941 1.57592 2.64941 2.0659C2.64921 2.5557 2.25157 2.95261 1.76172 2.95261C1.27208 2.95236 0.875204 2.55554 0.875 2.0659C0.875 1.57607 1.27195 1.17845 1.76172 1.1782ZM12.6133 1.5532C12.7489 1.55328 12.8787 1.60769 12.9746 1.70359C13.0705 1.79949 13.1249 1.9293 13.125 2.06492C13.125 2.20067 13.0706 2.33123 12.9746 2.42722C12.8787 2.52304 12.7488 2.57656 12.6133 2.57664H4.85352C4.71777 2.57664 4.5872 2.52321 4.49121 2.42722C4.39533 2.33125 4.3418 2.20058 4.3418 2.06492C4.34189 1.92945 4.3955 1.79946 4.49121 1.70359C4.5872 1.6076 4.71777 1.5532 4.85352 1.5532H12.6133Z" fill="#2C2D30"/>
</svg>
